<svg xmlns="http://www.w3.org/2000/svg" xmlns:xlink="http://www.w3.org/1999/xlink" id="Layer_1" viewBox="0 0 1131.5 254.7">
  <style>
    .st2{fill:#ef5d52}.st4{fill:#44403d}.st5{fill:#fff6d6}.st8{opacity:.22}.st15{opacity:.98}.st17{fill:#fff}.st18{opacity:.5}.st19{fill:#d6bc9a}.st20{opacity:.2}.st21{opacity:.67}.st22{fill:#443934}
  </style>
  <path fill="#d34a46" d="M573 231.7h-3.4c-5.1 0-9.2-4.1-9.2-9.2v-2.4c0-5.1 4.1-9.2 9.2-9.2h3.4c5.1 0 9.2 4.1 9.2 9.2v2.4c0 5.1-4.1 9.2-9.2 9.2z"/>
  <path d="M576.3 233.6h-10.1c-4.3 0-7.8-3.5-7.8-7.8v-9.1c0-4.3 3.5-7.8 7.8-7.8h10.1c4.3 0 7.8 3.5 7.8 7.8v9.1c0 4.3-3.5 7.8-7.8 7.8zm-10-20.9c-2.2 0-4 1.8-4 4v9.1c0 2.2 1.8 4 4 4h10.1c2.2 0 4-1.8 4-4v-9.1c0-2.2-1.8-4-4-4h-10.1z"/>
  <path d="M576.7 210.2h-11.1c-3.6 0-6.5 3.8-6.5 8.5v6c0-4.7 2.9-8.5 6.5-8.5h11.1c3.6 0 6.5 3.8 6.5 8.5v-6c0-4.7-2.9-8.5-6.5-8.5z" opacity=".25"/>
  <path d="M535.9 201.9l-4.6-1.5c-2.4-.8-5.1.5-5.8 2.8l-3.6 11.4c-.6 1.9-.9 3.9-.9 5.9v2c0 2 .3 4 .9 5.9l3.6 11.4c.7 2.3 3.4 3.6 5.8 2.8l4.6-1.5c8.1-2.7 15.8-6.5 22.7-11.3 1.1-.8 1.8-2.1 1.8-3.4v-9.8c0-1.3-.7-2.6-1.8-3.4-7-4.9-14.6-8.7-22.7-11.3z" class="st2"/>
  <path d="M529.8 244.6a6.3 6.3 0 0 1-6.1-4.3l-3.6-11.4c-.7-2.1-1-4.3-1-6.5v-2c0-2.2.3-4.4 1-6.5l3.6-11.4c.5-1.6 1.6-2.9 3.1-3.6 1.6-.8 3.4-.9 5.1-.4l4.6 1.5c8.3 2.7 16.1 6.6 23.2 11.5 1.7 1.1 2.6 3 2.6 5v9.8c0 2-1 3.8-2.6 5-7.1 4.9-14.9 8.8-23.2 11.5l-4.6 1.5c-.7.2-1.4.3-2.1.3zm0-42.6c-.4 0-.9.1-1.3.3-.6.3-1 .8-1.2 1.4l-3.6 11.4c-.5 1.7-.8 3.5-.8 5.3v2c0 1.8.3 3.6.8 5.3l3.6 11.4c.2.6.6 1.1 1.2 1.4.7.3 1.5.4 2.2.2l4.6-1.5c8-2.6 15.4-6.3 22.2-11 .6-.4 1-1.1 1-1.8v-9.8c0-.7-.4-1.4-1-1.8a85.2 85.2 0 0 0-22.2-11l-4.6-1.5c-.3-.2-.6-.3-.9-.3z"/>
  <path d="M606.7 201.9l4.6-1.5c2.4-.8 5.1.5 5.8 2.8l3.6 11.4c.6 1.9.9 3.9.9 5.9v2c0 2-.3 4-.9 5.9l-3.6 11.4c-.7 2.3-3.4 3.6-5.8 2.8l-4.6-1.5c-8.1-2.7-15.8-6.5-22.7-11.3-1.1-.8-1.8-2.1-1.8-3.4v-9.8c0-1.3.7-2.6 1.8-3.4 7-4.9 14.6-8.7 22.7-11.3z" class="st2"/>
  <path d="M612.8 244.6c-.7 0-1.4-.1-2.1-.3l-4.6-1.5c-8.3-2.7-16.1-6.6-23.2-11.5-1.7-1.1-2.6-3-2.6-5v-9.8c0-2 1-3.8 2.6-5 7.1-4.9 14.9-8.8 23.2-11.5l4.6-1.5a6.48 6.48 0 0 1 8.2 4l3.6 11.4c.7 2.1 1 4.3 1 6.5v2c0 2.2-.3 4.4-1 6.5l-3.6 11.4c-.5 1.6-1.6 2.9-3.1 3.6-.9.5-1.9.7-3 .7zm.1-42.6c-.3 0-.6 0-.9.1l-4.6 1.5c-8 2.6-15.4 6.3-22.2 11-.6.4-1 1.1-1 1.8v9.8c0 .7.4 1.4 1 1.8a85.2 85.2 0 0 0 22.2 11l4.6 1.5c.7.2 1.5.2 2.2-.2.6-.3 1-.8 1.2-1.4l3.6-11.4c.5-1.7.8-3.5.8-5.3v-2c0-1.8-.3-3.6-.8-5.3l-3.6-11.4c-.2-.6-.6-1.1-1.2-1.4-.5 0-.9-.1-1.3-.1z"/>
  <path d="M621.3 214.7l-3.6-11.4c-.7-2.3-3.4-3.6-5.8-2.8l-4.6 1.5c-8.1 2.7-15.8 6.5-22.7 11.3-.9.6-1.5 1.5-1.7 2.5 6.2-3.9 12.9-7.1 19.9-9.4l4.6-1.5c2.4-.8 5.1.5 5.8 2.8l3.6 11.4c.6 1.9.9 3.9.9 5.9v2c0 2-.3 4-.9 5.9l-3.2 10.1a4.3 4.3 0 0 0 4-3l3.6-11.4c.6-1.9.9-3.9.9-5.9v-2c.2-2.1-.1-4.1-.8-6zm-100.4 0l3.6-11.4c.7-2.3 3.4-3.6 5.8-2.8l4.6 1.5c8.1 2.7 15.8 6.5 22.7 11.3.9.6 1.5 1.5 1.7 2.5-6.2-3.9-12.9-7.1-19.9-9.4l-4.6-1.5c-2.4-.8-5.1.5-5.8 2.8l-3.6 11.4c-.6 1.9-.9 3.9-.9 5.9v2c0 2 .3 4 .9 5.9l3.2 10.1a4.3 4.3 0 0 1-4-3l-3.6-11.4c-.6-1.9-.9-3.9-.9-5.9v-2c-.1-2.1.2-4.1.8-6z"/>
  <path d="M542 214.2l18.3 6.1" class="st2"/>
  <path d="M560.3 222.2c-.2 0-.4 0-.6-.1l-18.3-6.1c-1-.3-1.5-1.4-1.2-2.4.3-1 1.4-1.5 2.4-1.2l18.3 6.1c1 .3 1.5 1.4 1.2 2.4-.3.8-1 1.3-1.8 1.3z"/>
  <path d="M560.3 222.4l-18.3 6.1" class="st2"/>
  <path d="M542 230.4c-.8 0-1.5-.5-1.8-1.3-.3-1 .2-2.1 1.2-2.4l18.3-6.1c1-.3 2.1.2 2.4 1.2.3 1-.2 2.1-1.2 2.4l-18.3 6.1c-.2.1-.4.1-.6.1z"/>
  <path d="M601 214.2l-18.3 6.1" class="st2"/>
  <path d="M582.7 222.2c-.8 0-1.5-.5-1.8-1.3-.3-1 .2-2.1 1.2-2.4l18.3-6.1c1-.3 2.1.2 2.4 1.2.3 1-.2 2.1-1.2 2.4l-18.3 6.1c-.2.1-.4.1-.6.1z"/>
  <path d="M582.7 222.4l18.3 6.1" class="st2"/>
  <path d="M601 230.4c-.2 0-.4 0-.6-.1l-18.3-6.1c-1-.3-1.5-1.4-1.2-2.4.3-1 1.4-1.5 2.4-1.2l18.3 6.1c1 .3 1.5 1.4 1.2 2.4-.3.8-1 1.3-1.8 1.3z"/>
  <path d="M632.8 138.3l17.7 4.6c-4.6-4.5-8.2-12.5-10.7-19.6 14.3 6.8 26 7.6 26 7.6s-14.8-13.6-19.6-22.1l19.5 1c-11.5-7.2-10.9-34.3-10.9-34.3-6.1-52.3-57.3-48.7-57.3-48.7l-.8 3c-3.1 12.1-13.1 58 2.6 89.7 18.3 36.8 41.1 36.5 41.1 36.5s-4-8-7.6-17.7z" class="st4"/>
  <path d="M640.4 158.3c-1.6 0-24.6-.7-43-37.7-15.9-32.1-6.1-77.9-2.8-91.2.5-2 .8-3.1.8-3.1.3-.9 1.1-1.5 2-1.5.5 0 13.5-.9 27.4 4.9 12.9 5.4 29 17.6 32.3 45.7v.3c-.2 7.2 1.3 26.9 9.8 32.3.9.5 1.2 1.6.9 2.6-.3 1-1.2 1.6-2.2 1.6l-15.1-.8c5.9 7.9 16.7 17.9 16.8 18 .7.6.9 1.6.5 2.5-.4.9-1.2 1.4-2.2 1.4-.4 0-9.7-.7-21.9-5.6 2.6 6.3 5.4 11 8.3 13.8.7.7.9 1.8.4 2.7-.5.9-1.5 1.3-2.5 1.1l-13.5-3.5c3 7.6 5.9 13.4 5.9 13.5.3.7.3 1.5-.1 2.2-.3.4-1 .8-1.8.8zM599.2 29.1c-.1.4-.2.8-.3 1.3-1.4 5.5-4.8 20.1-5.7 37.1-1.1 20.7 1.6 37.9 8.1 51.1 13.1 26.3 28.4 33 35.3 34.7-1.5-3.3-3.8-8.5-5.9-14.2-.3-.8-.1-1.7.4-2.3.6-.6 1.4-.9 2.2-.7l11.3 2.9c-2.5-3.9-4.8-8.9-7-15-.3-.9-.1-1.8.6-2.4.7-.6 1.6-.7 2.5-.4 7.2 3.4 13.8 5.3 18.4 6.3-4.8-4.8-11.8-12.2-14.9-17.7-.4-.7-.4-1.6 0-2.3.4-.7 1.2-1.1 2-1.1l13.6.7c-7.4-10.3-7.4-29.4-7.3-31.6-2.5-20.8-12.4-34.9-29.6-42a62.57 62.57 0 0 0-23.7-4.4z"/>
  <path d="M511.5 136.4l-17.7 4.6c4.6-4.5 8.2-12.5 10.7-19.6-14.3 6.8-26 7.6-26 7.6s14.8-13.6 19.6-22.1l-19.5 1c11.5-7.2 10.9-34.3 10.9-34.3 6.1-52.3 57.3-48.7 57.3-48.7l.8 3c3.1 12.1 13.1 58-2.6 89.7-18.3 36.8-41.1 36.5-41.1 36.5s3.9-8 7.6-17.7z" class="st4"/>
  <path d="M503.9 156.4c-.8 0-1.5-.4-1.9-1.1-.4-.7-.4-1.5-.1-2.2 0-.1 2.9-5.9 5.9-13.5l-13.5 3.5c-1 .3-2-.2-2.5-1.1-.5-.9-.3-2 .4-2.7 2.9-2.8 5.7-7.5 8.3-13.8-12.2 4.9-21.4 5.6-21.9 5.6-.9.1-1.8-.5-2.2-1.4-.4-.9-.2-1.9.5-2.5.1-.1 10.9-10.1 16.8-18l-15.1.8c-1 .1-1.9-.6-2.2-1.6-.3-1 .1-2 .9-2.6 8.5-5.4 10-25.1 9.8-32.3v-.3c3.3-28.1 19.4-40.4 32.3-45.7 13.9-5.8 26.8-4.9 27.4-4.9.9.1 1.7.7 2 1.5 0 0 .4 1.2.9 3.2 3.4 13.3 13.2 59.1-2.8 91.2-18.3 37.2-41.4 37.9-43 37.9zm7.6-22.2c.6 0 1.2.3 1.7.7.6.6.7 1.5.4 2.3-2.1 5.7-4.4 10.8-5.9 14.1 7-1.7 22.3-8.5 35.3-34.6 6.5-13.2 9.3-30.3 8.1-51.1-.9-17-4.3-31.6-5.7-37.1-.1-.5-.2-1-.3-1.4-3.7 0-13.7.4-24 4.6-17.1 7.1-27 21.2-29.4 41.9 0 2.1.1 21.3-7.3 31.6l13.6-.7c.8 0 1.6.4 2 1.1.4.7.4 1.6 0 2.3-3.1 5.5-10.1 12.9-14.9 17.7 4.6-1 11.2-2.8 18.4-6.3.8-.4 1.8-.2 2.5.4.7.6.9 1.5.6 2.4-2.1 6.1-4.5 11.2-7 15l11.3-2.9h.6z"/>
  <path d="M512.3 106.3l-2.2-2.6c-4.3-5.4-13.5-3.3-14.8 3.5l-.2 1.5c-.4 3-.2 6.1.7 9 .2.5.3 1 .5 1.5l3 5.4c1.2 2.2 2.1 4.5 2.8 6.9l2.2 7.6c.3.7.4 1.4.4 2.2v2.4c0 1 .5 2 1.2 2.8 2 2.3 5.5 2.5 7.9.6l2.7-2.1" class="st5"/>
  <path d="M510 150.6c-2.2 0-4.4-.9-5.9-2.6a6.7 6.7 0 0 1-1.7-4.3v-2.4c0-.5-.1-.9-.3-1.3l-.1-.2-2.2-7.6c-.6-2.2-1.5-4.4-2.6-6.4l-3.1-5.6c-.2-.5-.4-1.1-.6-1.7-.9-3.1-1.2-6.5-.8-9.9l.2-1.7c.8-3.9 3.8-7 7.9-8 4.2-1 8.4.3 10.9 3.6l2.2 2.6-3.4 2.9-2.2-2.6a6.2 6.2 0 0 0-6.4-2c-2.4.6-4.1 2.2-4.5 4.4l-.2 1.4c-.4 2.9-.2 5.6.6 8.1.1.4.3.8.4 1.2l2.9 5.3c1.3 2.3 2.3 4.8 3 7.4l2.1 7.4c.4.9.5 1.9.5 2.9v2.4c0 .5.3 1 .6 1.3 1.2 1.3 3.4 1.5 4.9.3l2.7-2.1 2.7 3.5-2.7 2.1c-1.3 1-3.1 1.6-4.9 1.6z"/>
  <path d="M505.1 141.5c-.2 0-.5-.1-.7-.2-.6-.4-.7-1.2-.3-1.8 2.3-3.4 1.8-8.2 1.1-11.6-1-4.3-2.6-8.3-4.6-11-.4-.6-.3-1.4.3-1.8.6-.4 1.4-.3 1.8.3 2.2 3 4 7.3 5 11.9 1.3 5.6.8 10.3-1.4 13.6-.3.4-.7.6-1.2.6z"/>
  <path d="M629.8 106.3l2.2-2.6c4.3-5.4 13.5-3.3 14.8 3.5l.2 1.5c.4 3 .2 6.1-.7 9-.2.5-.3 1-.5 1.5l-3 5.4c-1.2 2.2-2.1 4.5-2.8 6.9l-2.2 7.6c-.3.7-.4 1.4-.4 2.2v2.4c0 1-.5 2-1.2 2.8-2 2.3-5.5 2.5-7.9.6l-2.7-2.1" class="st5"/>
  <path d="M632 150.6c-1.8 0-3.6-.6-5.1-1.7l-2.7-2.1 2.7-3.5 2.7 2.1c1.5 1.2 3.7 1 4.9-.3.3-.3.6-.8.6-1.3v-2.4c0-1 .2-2 .5-2.9l2.1-7.4c.7-2.6 1.7-5 3-7.4l2.9-5.3c.2-.4.3-.8.4-1.2.8-2.5 1-5.2.6-8.1l-.2-1.4c-.5-2.2-2.1-3.9-4.5-4.4a6.2 6.2 0 0 0-6.4 2l-2.2 2.7-3.4-2.9 2.2-2.6c2.5-3.2 6.7-4.5 10.9-3.5 4.1 1 7.1 4.1 7.9 8v.1l.2 1.5a23.29 23.29 0 0 1-1.4 11.6l-.1.2-3 5.4c-1.1 2-2 4.2-2.6 6.4l-2.2 7.8c-.2.4-.3.9-.3 1.3v2.4c0 1.5-.6 3-1.7 4.3a7.37 7.37 0 0 1-5.8 2.6z"/>
  <path fill="#ffeed4" d="M640.4 81.5c0-38.5-31.5-69.7-70.2-69.2-37.4.5-67.8 31.1-68.2 68.5-.1 10.3 2 20.1 6 28.9 4.3 9.5 6.5 19.8 6.4 30.2v.3c0 38.2 25.4 64.7 56.8 64.7s56.8-26.5 56.8-64.7v-.7c-.1-10.2 2.2-20.3 6.4-29.6 3.8-8.7 6-18.3 6-28.4z"/>
  <path d="M571.2 207.1c-33.6 0-59-28.8-59-67v-.3c0-10.1-2.1-19.9-6.3-29.3a70.8 70.8 0 0 1-6.2-29.8c.2-18.7 7.6-36.3 20.9-49.6A71.39 71.39 0 0 1 570.1 10c19.3-.3 37.4 7 51.2 20.6a70.95 70.95 0 0 1 21.3 50.8c0 10.2-2.1 20.1-6.3 29.3-4.2 9.2-6.2 18.9-6.2 28.6v.7c.1 38.3-25.3 67.1-58.9 67.1zm0-192.6h-1c-17.5.2-34 7.3-46.4 19.8a66.42 66.42 0 0 0-19.6 46.5 66.8 66.8 0 0 0 5.8 27.9c4.4 9.9 6.7 20.4 6.6 31.1v.3c0 17.7 5.7 33.7 16 45.2 10 11.2 23.7 17.3 38.5 17.3s28.4-6.1 38.5-17.3c10.3-11.5 16-27.5 16-45.2v-.7c-.1-10.4 2.1-20.7 6.6-30.5 3.9-8.7 5.9-17.9 5.9-27.5 0-18.1-7.1-35-19.9-47.7a66.6 66.6 0 0 0-47-19.2z"/>
  <path d="M636.9 141.5c-.4 0-.8-.2-1.1-.6-2.2-3.3-2.7-8-1.4-13.6 1.1-4.7 2.9-8.9 5-11.9.4-.6 1.2-.7 1.8-.3.6.4.7 1.2.3 1.8-2 2.8-3.6 6.7-4.6 11-.8 3.4-1.2 8.2 1.1 11.6.4.6.2 1.4-.3 1.8-.3.1-.5.2-.8.2z"/>
  <path fill="#9b8578" d="M595.8 152.8l-5.4-2.6c-1.6-.8-3.3-1.2-5-1.5l-5.4-.6c-1.8-.2-3.6-.1-5.3.2-2.2.5-4.5.5-6.8 0-1.7-.4-3.5-.5-5.3-.2l-5.4.6c-1.8.2-3.5.7-5 1.5l-5.4 2.6c-6.4 3.1-14.2 1.5-18.9-3.7l-13.6-15.2c.1 1.9.2 3.8.2 5.7v.3c0 38.2 25.4 64.7 56.8 64.7S628 178 628 139.8v-.7c0-1.7 0-3.5.2-5.2l-13.5 15.2c-4.7 5.2-12.5 6.7-18.9 3.7z"/>
  <g class="st8">
    <defs>
      <path id="SVGID_1_" d="M595.8 152.8l-5.4-2.6c-1.6-.8-3.3-1.2-5-1.5l-5.4-.6c-1.8-.2-3.6-.1-5.3.2-2.2.5-4.5.5-6.8 0-1.7-.4-3.5-.5-5.3-.2l-5.4.6c-1.8.2-3.5.7-5 1.5l-5.4 2.6c-6.4 3.1-14.2 1.5-18.9-3.7l-13.6-15.2c.1 1.9.2 3.8.2 5.7v.3c0 38.2 25.4 64.7 56.8 64.7S628 178 628 139.8v-.7c0-1.7 0-3.5.2-5.2l-13.5 15.2c-4.7 5.2-12.5 6.7-18.9 3.7z" class="st8"/>
    </defs>
    <clipPath id="SVGID_2_">
      <use overflow="visible" xlink:href="#SVGID_1_"/>
    </clipPath>
    <g clip-path="url(#SVGID_2_)">
      <path fill="#352e2a" d="M517.1 112.7c0 .9-.7 1.6-1.6 1.6s-1.6-.7-1.6-1.6c0-.9.7-1.6 1.6-1.6s1.6.7 1.6 1.6zm-1.6 4.2c-.9 0-1.6.7-1.6 1.6 0 .9.7 1.6 1.6 1.6s1.6-.7 1.6-1.6c0-.9-.7-1.6-1.6-1.6zm0 5.7c-.9 0-1.6.7-1.6 1.6 0 .9.7 1.6 1.6 1.6s1.6-.7 1.6-1.6c0-.9-.7-1.6-1.6-1.6zm0 5.7c-.9 0-1.6.7-1.6 1.6s.7 1.6 1.6 1.6 1.6-.7 1.6-1.6-.7-1.6-1.6-1.6zm0 5.8c-.9 0-1.6.7-1.6 1.6s.7 1.6 1.6 1.6 1.6-.7 1.6-1.6-.7-1.6-1.6-1.6zm0 5.7c-.9 0-1.6.7-1.6 1.6s.7 1.6 1.6 1.6 1.6-.7 1.6-1.6-.7-1.6-1.6-1.6zm0 5.8c-.9 0-1.6.7-1.6 1.6 0 .9.7 1.6 1.6 1.6s1.6-.7 1.6-1.6c0-.9-.7-1.6-1.6-1.6zm0 5.7c-.9 0-1.6.7-1.6 1.6 0 .9.7 1.6 1.6 1.6s1.6-.7 1.6-1.6c0-.9-.7-1.6-1.6-1.6zm0 5.7c-.9 0-1.6.7-1.6 1.6 0 .9.7 1.6 1.6 1.6s1.6-.7 1.6-1.6c0-.9-.7-1.6-1.6-1.6zm0 5.8c-.9 0-1.6.7-1.6 1.6 0 .9.7 1.6 1.6 1.6s1.6-.7 1.6-1.6c0-.9-.7-1.6-1.6-1.6zm0 5.7c-.9 0-1.6.7-1.6 1.6 0 .9.7 1.6 1.6 1.6s1.6-.7 1.6-1.6c0-.9-.7-1.6-1.6-1.6zm0 5.8c-.9 0-1.6.7-1.6 1.6s.7 1.6 1.6 1.6 1.6-.7 1.6-1.6-.7-1.6-1.6-1.6zm0 5.7c-.9 0-1.6.7-1.6 1.6s.7 1.6 1.6 1.6 1.6-.7 1.6-1.6-.7-1.6-1.6-1.6zm0 5.7c-.9 0-1.6.7-1.6 1.6s.7 1.6 1.6 1.6 1.6-.7 1.6-1.6-.7-1.6-1.6-1.6zm0 5.8c-.9 0-1.6.7-1.6 1.6s.7 1.6 1.6 1.6 1.6-.7 1.6-1.6-.7-1.6-1.6-1.6zm0 5.7c-.9 0-1.6.7-1.6 1.6 0 .9.7 1.6 1.6 1.6s1.6-.7 1.6-1.6c0-.9-.7-1.6-1.6-1.6zm0 5.7c-.9 0-1.6.7-1.6 1.6 0 .9.7 1.6 1.6 1.6s1.6-.7 1.6-1.6c0-.8-.7-1.6-1.6-1.6zm4.4-95c-.9 0-1.6.7-1.6 1.6 0 .9.7 1.6 1.6 1.6s1.6-.7 1.6-1.6c0-.9-.7-1.6-1.6-1.6zm0 5.8c-.9 0-1.6.7-1.6 1.6s.7 1.6 1.6 1.6 1.6-.7 1.6-1.6-.7-1.6-1.6-1.6zm0 5.7c-.9 0-1.6.7-1.6 1.6 0 .9.7 1.6 1.6 1.6s1.6-.7 1.6-1.6c0-.9-.7-1.6-1.6-1.6zm0 5.8c-.9 0-1.6.7-1.6 1.6 0 .9.7 1.6 1.6 1.6s1.6-.7 1.6-1.6c0-.9-.7-1.6-1.6-1.6zm0 5.7c-.9 0-1.6.7-1.6 1.6s.7 1.6 1.6 1.6 1.6-.7 1.6-1.6-.7-1.6-1.6-1.6zm0 5.7c-.9 0-1.6.7-1.6 1.6s.7 1.6 1.6 1.6 1.6-.7 1.6-1.6-.7-1.6-1.6-1.6zm0 5.8c-.9 0-1.6.7-1.6 1.6s.7 1.6 1.6 1.6 1.6-.7 1.6-1.6-.7-1.6-1.6-1.6zm0 5.7c-.9 0-1.6.7-1.6 1.6s.7 1.6 1.6 1.6 1.6-.7 1.6-1.6-.7-1.6-1.6-1.6zm0 5.7c-.9 0-1.6.7-1.6 1.6 0 .9.7 1.6 1.6 1.6s1.6-.7 1.6-1.6c0-.8-.7-1.6-1.6-1.6zm0 5.8c-.9 0-1.6.7-1.6 1.6 0 .9.7 1.6 1.6 1.6s1.6-.7 1.6-1.6c0-.9-.7-1.6-1.6-1.6zm0 5.7c-.9 0-1.6.7-1.6 1.6 0 .9.7 1.6 1.6 1.6s1.6-.7 1.6-1.6c0-.9-.7-1.6-1.6-1.6zm0 5.8c-.9 0-1.6.7-1.6 1.6 0 .9.7 1.6 1.6 1.6s1.6-.7 1.6-1.6c0-.9-.7-1.6-1.6-1.6zm0 5.7c-.9 0-1.6.7-1.6 1.6 0 .9.7 1.6 1.6 1.6s1.6-.7 1.6-1.6c0-.9-.7-1.6-1.6-1.6zm0 5.7c-.9 0-1.6.7-1.6 1.6 0 .9.7 1.6 1.6 1.6s1.6-.7 1.6-1.6c0-.8-.7-1.6-1.6-1.6zm0 5.8c-.9 0-1.6.7-1.6 1.6s.7 1.6 1.6 1.6 1.6-.7 1.6-1.6-.7-1.6-1.6-1.6zm0 5.7c-.9 0-1.6.7-1.6 1.6s.7 1.6 1.6 1.6 1.6-.7 1.6-1.6-.7-1.6-1.6-1.6zm0 5.8c-.9 0-1.6.7-1.6 1.6s.7 1.6 1.6 1.6 1.6-.7 1.6-1.6-.7-1.6-1.6-1.6zm4.5-88.7c-.9 0-1.6.7-1.6 1.6 0 .9.7 1.6 1.6 1.6s1.6-.7 1.6-1.6c0-.9-.7-1.6-1.6-1.6zm0 5.8c-.9 0-1.6.7-1.6 1.6 0 .9.7 1.6 1.6 1.6s1.6-.7 1.6-1.6c0-.9-.7-1.6-1.6-1.6zm0 5.7c-.9 0-1.6.7-1.6 1.6 0 .9.7 1.6 1.6 1.6s1.6-.7 1.6-1.6c0-.9-.7-1.6-1.6-1.6zm0 5.7c-.9 0-1.6.7-1.6 1.6s.7 1.6 1.6 1.6 1.6-.7 1.6-1.6-.7-1.6-1.6-1.6zm0 5.8c-.9 0-1.6.7-1.6 1.6s.7 1.6 1.6 1.6 1.6-.7 1.6-1.6-.7-1.6-1.6-1.6zm0 5.7c-.9 0-1.6.7-1.6 1.6s.7 1.6 1.6 1.6 1.6-.7 1.6-1.6-.7-1.6-1.6-1.6zm0 5.8c-.9 0-1.6.7-1.6 1.6 0 .9.7 1.6 1.6 1.6s1.6-.7 1.6-1.6c0-.9-.7-1.6-1.6-1.6zm0 5.7c-.9 0-1.6.7-1.6 1.6 0 .9.7 1.6 1.6 1.6s1.6-.7 1.6-1.6c0-.9-.7-1.6-1.6-1.6zm0 5.7c-.9 0-1.6.7-1.6 1.6 0 .9.7 1.6 1.6 1.6s1.6-.7 1.6-1.6c0-.9-.7-1.6-1.6-1.6zm0 5.8c-.9 0-1.6.7-1.6 1.6 0 .9.7 1.6 1.6 1.6s1.6-.7 1.6-1.6c0-.9-.7-1.6-1.6-1.6zm0 5.7c-.9 0-1.6.7-1.6 1.6 0 .9.7 1.6 1.6 1.6s1.6-.7 1.6-1.6c0-.9-.7-1.6-1.6-1.6zm0 5.8c-.9 0-1.6.7-1.6 1.6s.7 1.6 1.6 1.6 1.6-.7 1.6-1.6-.7-1.6-1.6-1.6zm0 5.7c-.9 0-1.6.7-1.6 1.6s.7 1.6 1.6 1.6 1.6-.7 1.6-1.6-.7-1.6-1.6-1.6zm0 5.7c-.9 0-1.6.7-1.6 1.6s.7 1.6 1.6 1.6 1.6-.7 1.6-1.6-.7-1.6-1.6-1.6zm0 5.8c-.9 0-1.6.7-1.6 1.6s.7 1.6 1.6 1.6 1.6-.7 1.6-1.6-.7-1.6-1.6-1.6zm0 5.7c-.9 0-1.6.7-1.6 1.6 0 .9.7 1.6 1.6 1.6s1.6-.7 1.6-1.6c0-.9-.7-1.6-1.6-1.6zm0 5.7c-.9 0-1.6.7-1.6 1.6 0 .9.7 1.6 1.6 1.6s1.6-.7 1.6-1.6c0-.8-.7-1.6-1.6-1.6zm4.5-95c-.9 0-1.6.7-1.6 1.6 0 .9.7 1.6 1.6 1.6.9 0 1.6-.7 1.6-1.6 0-.9-.8-1.6-1.6-1.6zm0 5.8c-.9 0-1.6.7-1.6 1.6s.7 1.6 1.6 1.6c.9 0 1.6-.7 1.6-1.6s-.8-1.6-1.6-1.6zm0 5.7c-.9 0-1.6.7-1.6 1.6 0 .9.7 1.6 1.6 1.6.9 0 1.6-.7 1.6-1.6 0-.9-.8-1.6-1.6-1.6zm0 5.8c-.9 0-1.6.7-1.6 1.6 0 .9.7 1.6 1.6 1.6.9 0 1.6-.7 1.6-1.6 0-.9-.8-1.6-1.6-1.6zm0 5.7c-.9 0-1.6.7-1.6 1.6s.7 1.6 1.6 1.6c.9 0 1.6-.7 1.6-1.6s-.8-1.6-1.6-1.6zm0 5.7c-.9 0-1.6.7-1.6 1.6s.7 1.6 1.6 1.6c.9 0 1.6-.7 1.6-1.6s-.8-1.6-1.6-1.6zm0 5.8c-.9 0-1.6.7-1.6 1.6s.7 1.6 1.6 1.6c.9 0 1.6-.7 1.6-1.6s-.8-1.6-1.6-1.6zm0 5.7c-.9 0-1.6.7-1.6 1.6s.7 1.6 1.6 1.6c.9 0 1.6-.7 1.6-1.6s-.8-1.6-1.6-1.6zm0 5.7c-.9 0-1.6.7-1.6 1.6 0 .9.7 1.6 1.6 1.6.9 0 1.6-.7 1.6-1.6 0-.8-.8-1.6-1.6-1.6zm0 5.8c-.9 0-1.6.7-1.6 1.6 0 .9.7 1.6 1.6 1.6.9 0 1.6-.7 1.6-1.6 0-.9-.8-1.6-1.6-1.6zm0 5.7c-.9 0-1.6.7-1.6 1.6 0 .9.7 1.6 1.6 1.6.9 0 1.6-.7 1.6-1.6 0-.9-.8-1.6-1.6-1.6zm0 5.8c-.9 0-1.6.7-1.6 1.6 0 .9.7 1.6 1.6 1.6.9 0 1.6-.7 1.6-1.6 0-.9-.8-1.6-1.6-1.6zm0 5.7c-.9 0-1.6.7-1.6 1.6 0 .9.7 1.6 1.6 1.6.9 0 1.6-.7 1.6-1.6 0-.9-.8-1.6-1.6-1.6zm0 5.7c-.9 0-1.6.7-1.6 1.6 0 .9.7 1.6 1.6 1.6.9 0 1.6-.7 1.6-1.6 0-.8-.8-1.6-1.6-1.6zm0 5.8c-.9 0-1.6.7-1.6 1.6s.7 1.6 1.6 1.6c.9 0 1.6-.7 1.6-1.6s-.8-1.6-1.6-1.6zm0 5.7c-.9 0-1.6.7-1.6 1.6s.7 1.6 1.6 1.6c.9 0 1.6-.7 1.6-1.6s-.8-1.6-1.6-1.6zm0 5.8c-.9 0-1.6.7-1.6 1.6s.7 1.6 1.6 1.6c.9 0 1.6-.7 1.6-1.6s-.8-1.6-1.6-1.6zm4.4-88.7c-.9 0-1.6.7-1.6 1.6 0 .9.7 1.6 1.6 1.6s1.6-.7 1.6-1.6c0-.9-.7-1.6-1.6-1.6zm0 5.8c-.9 0-1.6.7-1.6 1.6 0 .9.7 1.6 1.6 1.6s1.6-.7 1.6-1.6c0-.9-.7-1.6-1.6-1.6zm0 5.7c-.9 0-1.6.7-1.6 1.6 0 .9.7 1.6 1.6 1.6s1.6-.7 1.6-1.6c0-.9-.7-1.6-1.6-1.6zm0 5.7c-.9 0-1.6.7-1.6 1.6s.7 1.6 1.6 1.6 1.6-.7 1.6-1.6-.7-1.6-1.6-1.6zm0 5.8c-.9 0-1.6.7-1.6 1.6s.7 1.6 1.6 1.6 1.6-.7 1.6-1.6-.7-1.6-1.6-1.6zm0 5.7c-.9 0-1.6.7-1.6 1.6s.7 1.6 1.6 1.6 1.6-.7 1.6-1.6-.7-1.6-1.6-1.6zm0 5.8c-.9 0-1.6.7-1.6 1.6 0 .9.7 1.6 1.6 1.6s1.6-.7 1.6-1.6c0-.9-.7-1.6-1.6-1.6zm0 5.7c-.9 0-1.6.7-1.6 1.6 0 .9.7 1.6 1.6 1.6s1.6-.7 1.6-1.6c0-.9-.7-1.6-1.6-1.6zm0 5.7c-.9 0-1.6.7-1.6 1.6 0 .9.7 1.6 1.6 1.6s1.6-.7 1.6-1.6c0-.9-.7-1.6-1.6-1.6zm0 5.8c-.9 0-1.6.7-1.6 1.6 0 .9.7 1.6 1.6 1.6s1.6-.7 1.6-1.6c0-.9-.7-1.6-1.6-1.6zm0 5.7c-.9 0-1.6.7-1.6 1.6 0 .9.7 1.6 1.6 1.6s1.6-.7 1.6-1.6c0-.9-.7-1.6-1.6-1.6zm0 5.8c-.9 0-1.6.7-1.6 1.6s.7 1.6 1.6 1.6 1.6-.7 1.6-1.6-.7-1.6-1.6-1.6zm0 5.7c-.9 0-1.6.7-1.6 1.6s.7 1.6 1.6 1.6 1.6-.7 1.6-1.6-.7-1.6-1.6-1.6zm0 5.7c-.9 0-1.6.7-1.6 1.6s.7 1.6 1.6 1.6 1.6-.7 1.6-1.6-.7-1.6-1.6-1.6zm0 5.8c-.9 0-1.6.7-1.6 1.6s.7 1.6 1.6 1.6 1.6-.7 1.6-1.6-.7-1.6-1.6-1.6zm0 5.7c-.9 0-1.6.7-1.6 1.6 0 .9.7 1.6 1.6 1.6s1.6-.7 1.6-1.6c0-.9-.7-1.6-1.6-1.6zm0 5.7c-.9 0-1.6.7-1.6 1.6 0 .9.7 1.6 1.6 1.6s1.6-.7 1.6-1.6c0-.8-.7-1.6-1.6-1.6zm4.5-95c-.9 0-1.6.7-1.6 1.6 0 .9.7 1.6 1.6 1.6.9 0 1.6-.7 1.6-1.6 0-.9-.7-1.6-1.6-1.6zm0 5.8c-.9 0-1.6.7-1.6 1.6s.7 1.6 1.6 1.6c.9 0 1.6-.7 1.6-1.6s-.7-1.6-1.6-1.6zm0 5.7c-.9 0-1.6.7-1.6 1.6 0 .9.7 1.6 1.6 1.6.9 0 1.6-.7 1.6-1.6 0-.9-.7-1.6-1.6-1.6zm0 5.8c-.9 0-1.6.7-1.6 1.6 0 .9.7 1.6 1.6 1.6.9 0 1.6-.7 1.6-1.6 0-.9-.7-1.6-1.6-1.6zm0 5.7c-.9 0-1.6.7-1.6 1.6s.7 1.6 1.6 1.6c.9 0 1.6-.7 1.6-1.6s-.7-1.6-1.6-1.6zm0 5.7c-.9 0-1.6.7-1.6 1.6s.7 1.6 1.6 1.6c.9 0 1.6-.7 1.6-1.6s-.7-1.6-1.6-1.6zm0 5.8c-.9 0-1.6.7-1.6 1.6s.7 1.6 1.6 1.6c.9 0 1.6-.7 1.6-1.6s-.7-1.6-1.6-1.6zm0 5.7c-.9 0-1.6.7-1.6 1.6s.7 1.6 1.6 1.6c.9 0 1.6-.7 1.6-1.6s-.7-1.6-1.6-1.6zm0 5.7c-.9 0-1.6.7-1.6 1.6 0 .9.7 1.6 1.6 1.6.9 0 1.6-.7 1.6-1.6 0-.8-.7-1.6-1.6-1.6zm0 5.8c-.9 0-1.6.7-1.6 1.6 0 .9.7 1.6 1.6 1.6.9 0 1.6-.7 1.6-1.6 0-.9-.7-1.6-1.6-1.6zm0 5.7c-.9 0-1.6.7-1.6 1.6 0 .9.7 1.6 1.6 1.6.9 0 1.6-.7 1.6-1.6 0-.9-.7-1.6-1.6-1.6zm0 5.8c-.9 0-1.6.7-1.6 1.6 0 .9.7 1.6 1.6 1.6.9 0 1.6-.7 1.6-1.6 0-.9-.7-1.6-1.6-1.6zm0 5.7c-.9 0-1.6.7-1.6 1.6 0 .9.7 1.6 1.6 1.6.9 0 1.6-.7 1.6-1.6 0-.9-.7-1.6-1.6-1.6zm0 5.7c-.9 0-1.6.7-1.6 1.6 0 .9.7 1.6 1.6 1.6.9 0 1.6-.7 1.6-1.6 0-.8-.7-1.6-1.6-1.6zm0 5.8c-.9 0-1.6.7-1.6 1.6s.7 1.6 1.6 1.6c.9 0 1.6-.7 1.6-1.6s-.7-1.6-1.6-1.6zm0 5.7c-.9 0-1.6.7-1.6 1.6s.7 1.6 1.6 1.6c.9 0 1.6-.7 1.6-1.6s-.7-1.6-1.6-1.6zm0 5.8c-.9 0-1.6.7-1.6 1.6s.7 1.6 1.6 1.6c.9 0 1.6-.7 1.6-1.6s-.7-1.6-1.6-1.6zm4.5-88.7c-.9 0-1.6.7-1.6 1.6 0 .9.7 1.6 1.6 1.6s1.6-.7 1.6-1.6c-.1-.9-.8-1.6-1.6-1.6zm0 5.8c-.9 0-1.6.7-1.6 1.6 0 .9.7 1.6 1.6 1.6s1.6-.7 1.6-1.6c-.1-.9-.8-1.6-1.6-1.6zm0 5.7c-.9 0-1.6.7-1.6 1.6 0 .9.7 1.6 1.6 1.6s1.6-.7 1.6-1.6c-.1-.9-.8-1.6-1.6-1.6zm0 5.7c-.9 0-1.6.7-1.6 1.6s.7 1.6 1.6 1.6 1.6-.7 1.6-1.6-.8-1.6-1.6-1.6zm0 5.8c-.9 0-1.6.7-1.6 1.6s.7 1.6 1.6 1.6 1.6-.7 1.6-1.6-.8-1.6-1.6-1.6zm0 5.7c-.9 0-1.6.7-1.6 1.6s.7 1.6 1.6 1.6 1.6-.7 1.6-1.6-.8-1.6-1.6-1.6zm0 5.8c-.9 0-1.6.7-1.6 1.6 0 .9.7 1.6 1.6 1.6s1.6-.7 1.6-1.6c-.1-.9-.8-1.6-1.6-1.6zm0 5.7c-.9 0-1.6.7-1.6 1.6 0 .9.7 1.6 1.6 1.6s1.6-.7 1.6-1.6c-.1-.9-.8-1.6-1.6-1.6zm0 5.7c-.9 0-1.6.7-1.6 1.6 0 .9.7 1.6 1.6 1.6s1.6-.7 1.6-1.6c-.1-.9-.8-1.6-1.6-1.6zm0 5.8c-.9 0-1.6.7-1.6 1.6 0 .9.7 1.6 1.6 1.6s1.6-.7 1.6-1.6c-.1-.9-.8-1.6-1.6-1.6zm0 5.7c-.9 0-1.6.7-1.6 1.6 0 .9.7 1.6 1.6 1.6s1.6-.7 1.6-1.6c-.1-.9-.8-1.6-1.6-1.6zm0 5.8c-.9 0-1.6.7-1.6 1.6s.7 1.6 1.6 1.6 1.6-.7 1.6-1.6-.8-1.6-1.6-1.6zm0 5.7c-.9 0-1.6.7-1.6 1.6s.7 1.6 1.6 1.6 1.6-.7 1.6-1.6-.8-1.6-1.6-1.6zm0 5.7c-.9 0-1.6.7-1.6 1.6s.7 1.6 1.6 1.6 1.6-.7 1.6-1.6-.8-1.6-1.6-1.6zm0 5.8c-.9 0-1.6.7-1.6 1.6s.7 1.6 1.6 1.6 1.6-.7 1.6-1.6-.8-1.6-1.6-1.6zm0 5.7c-.9 0-1.6.7-1.6 1.6 0 .9.7 1.6 1.6 1.6s1.6-.7 1.6-1.6c-.1-.9-.8-1.6-1.6-1.6zm0 5.7c-.9 0-1.6.7-1.6 1.6 0 .9.7 1.6 1.6 1.6s1.6-.7 1.6-1.6c-.1-.8-.8-1.6-1.6-1.6zm4.4-95c-.9 0-1.6.7-1.6 1.6 0 .9.7 1.6 1.6 1.6.9 0 1.6-.7 1.6-1.6 0-.9-.7-1.6-1.6-1.6zm0 5.8c-.9 0-1.6.7-1.6 1.6s.7 1.6 1.6 1.6c.9 0 1.6-.7 1.6-1.6s-.7-1.6-1.6-1.6zm0 5.7c-.9 0-1.6.7-1.6 1.6 0 .9.7 1.6 1.6 1.6.9 0 1.6-.7 1.6-1.6 0-.9-.7-1.6-1.6-1.6zm0 5.8c-.9 0-1.6.7-1.6 1.6 0 .9.7 1.6 1.6 1.6.9 0 1.6-.7 1.6-1.6 0-.9-.7-1.6-1.6-1.6zm0 5.7c-.9 0-1.6.7-1.6 1.6s.7 1.6 1.6 1.6c.9 0 1.6-.7 1.6-1.6s-.7-1.6-1.6-1.6zm0 5.7c-.9 0-1.6.7-1.6 1.6s.7 1.6 1.6 1.6c.9 0 1.6-.7 1.6-1.6s-.7-1.6-1.6-1.6zm0 5.8c-.9 0-1.6.7-1.6 1.6s.7 1.6 1.6 1.6c.9 0 1.6-.7 1.6-1.6s-.7-1.6-1.6-1.6zm0 5.7c-.9 0-1.6.7-1.6 1.6s.7 1.6 1.6 1.6c.9 0 1.6-.7 1.6-1.6s-.7-1.6-1.6-1.6zm0 5.7c-.9 0-1.6.7-1.6 1.6 0 .9.7 1.6 1.6 1.6.9 0 1.6-.7 1.6-1.6 0-.8-.7-1.6-1.6-1.6zm0 5.8c-.9 0-1.6.7-1.6 1.6 0 .9.7 1.6 1.6 1.6.9 0 1.6-.7 1.6-1.6 0-.9-.7-1.6-1.6-1.6zm0 5.7c-.9 0-1.6.7-1.6 1.6 0 .9.7 1.6 1.6 1.6.9 0 1.6-.7 1.6-1.6 0-.9-.7-1.6-1.6-1.6zm0 5.8c-.9 0-1.6.7-1.6 1.6 0 .9.7 1.6 1.6 1.6.9 0 1.6-.7 1.6-1.6 0-.9-.7-1.6-1.6-1.6zm0 5.7c-.9 0-1.6.7-1.6 1.6 0 .9.7 1.6 1.6 1.6.9 0 1.6-.7 1.6-1.6 0-.9-.7-1.6-1.6-1.6zm0 5.7c-.9 0-1.6.7-1.6 1.6 0 .9.7 1.6 1.6 1.6.9 0 1.6-.7 1.6-1.6 0-.8-.7-1.6-1.6-1.6zm0 5.8c-.9 0-1.6.7-1.6 1.6s.7 1.6 1.6 1.6c.9 0 1.6-.7 1.6-1.6s-.7-1.6-1.6-1.6zm0 5.7c-.9 0-1.6.7-1.6 1.6s.7 1.6 1.6 1.6c.9 0 1.6-.7 1.6-1.6s-.7-1.6-1.6-1.6zm0 5.8c-.9 0-1.6.7-1.6 1.6s.7 1.6 1.6 1.6c.9 0 1.6-.7 1.6-1.6s-.7-1.6-1.6-1.6zm4.5-88.7c-.9 0-1.6.7-1.6 1.6 0 .9.7 1.6 1.6 1.6s1.6-.7 1.6-1.6c0-.9-.7-1.6-1.6-1.6zm0 5.8c-.9 0-1.6.7-1.6 1.6 0 .9.7 1.6 1.6 1.6s1.6-.7 1.6-1.6c0-.9-.7-1.6-1.6-1.6zm0 5.7c-.9 0-1.6.7-1.6 1.6 0 .9.7 1.6 1.6 1.6s1.6-.7 1.6-1.6c0-.9-.7-1.6-1.6-1.6zm0 5.7c-.9 0-1.6.7-1.6 1.6s.7 1.6 1.6 1.6 1.6-.7 1.6-1.6-.7-1.6-1.6-1.6zm0 5.8c-.9 0-1.6.7-1.6 1.6s.7 1.6 1.6 1.6 1.6-.7 1.6-1.6-.7-1.6-1.6-1.6zm0 5.7c-.9 0-1.6.7-1.6 1.6s.7 1.6 1.6 1.6 1.6-.7 1.6-1.6-.7-1.6-1.6-1.6zm0 5.8c-.9 0-1.6.7-1.6 1.6 0 .9.7 1.6 1.6 1.6s1.6-.7 1.6-1.6c0-.9-.7-1.6-1.6-1.6zm0 5.7c-.9 0-1.6.7-1.6 1.6 0 .9.7 1.6 1.6 1.6s1.6-.7 1.6-1.6c0-.9-.7-1.6-1.6-1.6zm0 5.7c-.9 0-1.6.7-1.6 1.6 0 .9.7 1.6 1.6 1.6s1.6-.7 1.6-1.6c0-.9-.7-1.6-1.6-1.6zm0 5.8c-.9 0-1.6.7-1.6 1.6 0 .9.7 1.6 1.6 1.6s1.6-.7 1.6-1.6c0-.9-.7-1.6-1.6-1.6zm0 5.7c-.9 0-1.6.7-1.6 1.6 0 .9.7 1.6 1.6 1.6s1.6-.7 1.6-1.6c0-.9-.7-1.6-1.6-1.6zm0 5.8c-.9 0-1.6.7-1.6 1.6s.7 1.6 1.6 1.6 1.6-.7 1.6-1.6-.7-1.6-1.6-1.6zm0 5.7c-.9 0-1.6.7-1.6 1.6s.7 1.6 1.6 1.6 1.6-.7 1.6-1.6-.7-1.6-1.6-1.6zm0 5.7c-.9 0-1.6.7-1.6 1.6s.7 1.6 1.6 1.6 1.6-.7 1.6-1.6-.7-1.6-1.6-1.6zm0 5.8c-.9 0-1.6.7-1.6 1.6s.7 1.6 1.6 1.6 1.6-.7 1.6-1.6-.7-1.6-1.6-1.6zm0 5.7c-.9 0-1.6.7-1.6 1.6 0 .9.7 1.6 1.6 1.6s1.6-.7 1.6-1.6c0-.9-.7-1.6-1.6-1.6zm0 5.7c-.9 0-1.6.7-1.6 1.6 0 .9.7 1.6 1.6 1.6s1.6-.7 1.6-1.6c0-.8-.7-1.6-1.6-1.6zm4.4-95c-.9 0-1.6.7-1.6 1.6 0 .9.7 1.6 1.6 1.6.9 0 1.6-.7 1.6-1.6 0-.9-.7-1.6-1.6-1.6zm0 5.8c-.9 0-1.6.7-1.6 1.6s.7 1.6 1.6 1.6c.9 0 1.6-.7 1.6-1.6s-.7-1.6-1.6-1.6zm0 5.7c-.9 0-1.6.7-1.6 1.6 0 .9.7 1.6 1.6 1.6.9 0 1.6-.7 1.6-1.6 0-.9-.7-1.6-1.6-1.6zm0 5.8c-.9 0-1.6.7-1.6 1.6 0 .9.7 1.6 1.6 1.6.9 0 1.6-.7 1.6-1.6 0-.9-.7-1.6-1.6-1.6zm0 5.7c-.9 0-1.6.7-1.6 1.6s.7 1.6 1.6 1.6c.9 0 1.6-.7 1.6-1.6s-.7-1.6-1.6-1.6zm0 5.7c-.9 0-1.6.7-1.6 1.6s.7 1.6 1.6 1.6c.9 0 1.6-.7 1.6-1.6s-.7-1.6-1.6-1.6zm0 5.8c-.9 0-1.6.7-1.6 1.6s.7 1.6 1.6 1.6c.9 0 1.6-.7 1.6-1.6s-.7-1.6-1.6-1.6zm0 5.7c-.9 0-1.6.7-1.6 1.6s.7 1.6 1.6 1.6c.9 0 1.6-.7 1.6-1.6s-.7-1.6-1.6-1.6zm0 5.7c-.9 0-1.6.7-1.6 1.6 0 .9.7 1.6 1.6 1.6.9 0 1.6-.7 1.6-1.6 0-.8-.7-1.6-1.6-1.6zm0 5.8c-.9 0-1.6.7-1.6 1.6 0 .9.7 1.6 1.6 1.6.9 0 1.6-.7 1.6-1.6 0-.9-.7-1.6-1.6-1.6zm0 5.7c-.9 0-1.6.7-1.6 1.6 0 .9.7 1.6 1.6 1.6.9 0 1.6-.7 1.6-1.6 0-.9-.7-1.6-1.6-1.6zm0 5.8c-.9 0-1.6.7-1.6 1.6 0 .9.7 1.6 1.6 1.6.9 0 1.6-.7 1.6-1.6 0-.9-.7-1.6-1.6-1.6zm0 5.7c-.9 0-1.6.7-1.6 1.6 0 .9.7 1.6 1.6 1.6.9 0 1.6-.7 1.6-1.6 0-.9-.7-1.6-1.6-1.6zm0 5.7c-.9 0-1.6.7-1.6 1.6 0 .9.7 1.6 1.6 1.6.9 0 1.6-.7 1.6-1.6 0-.8-.7-1.6-1.6-1.6zm0 5.8c-.9 0-1.6.7-1.6 1.6s.7 1.6 1.6 1.6c.9 0 1.6-.7 1.6-1.6s-.7-1.6-1.6-1.6zm0 5.7c-.9 0-1.6.7-1.6 1.6s.7 1.6 1.6 1.6c.9 0 1.6-.7 1.6-1.6s-.7-1.6-1.6-1.6zm0 5.8c-.9 0-1.6.7-1.6 1.6s.7 1.6 1.6 1.6c.9 0 1.6-.7 1.6-1.6s-.7-1.6-1.6-1.6zm4.5-88.7c-.9 0-1.6.7-1.6 1.6 0 .9.7 1.6 1.6 1.6s1.6-.7 1.6-1.6c0-.9-.7-1.6-1.6-1.6zm0 5.8c-.9 0-1.6.7-1.6 1.6 0 .9.7 1.6 1.6 1.6s1.6-.7 1.6-1.6c0-.9-.7-1.6-1.6-1.6zm0 5.7c-.9 0-1.6.7-1.6 1.6 0 .9.7 1.6 1.6 1.6s1.6-.7 1.6-1.6c0-.9-.7-1.6-1.6-1.6zm0 5.7c-.9 0-1.6.7-1.6 1.6s.7 1.6 1.6 1.6 1.6-.7 1.6-1.6-.7-1.6-1.6-1.6zm0 5.8c-.9 0-1.6.7-1.6 1.6s.7 1.6 1.6 1.6 1.6-.7 1.6-1.6-.7-1.6-1.6-1.6zm0 5.7c-.9 0-1.6.7-1.6 1.6s.7 1.6 1.6 1.6 1.6-.7 1.6-1.6-.7-1.6-1.6-1.6zm0 5.8c-.9 0-1.6.7-1.6 1.6 0 .9.7 1.6 1.6 1.6s1.6-.7 1.6-1.6c0-.9-.7-1.6-1.6-1.6zm0 5.7c-.9 0-1.6.7-1.6 1.6 0 .9.7 1.6 1.6 1.6s1.6-.7 1.6-1.6c0-.9-.7-1.6-1.6-1.6zm0 5.7c-.9 0-1.6.7-1.6 1.6 0 .9.7 1.6 1.6 1.6s1.6-.7 1.6-1.6c0-.9-.7-1.6-1.6-1.6zm0 5.8c-.9 0-1.6.7-1.6 1.6 0 .9.7 1.6 1.6 1.6s1.6-.7 1.6-1.6c0-.9-.7-1.6-1.6-1.6zm0 5.7c-.9 0-1.6.7-1.6 1.6 0 .9.7 1.6 1.6 1.6s1.6-.7 1.6-1.6c0-.9-.7-1.6-1.6-1.6zm0 5.8c-.9 0-1.6.7-1.6 1.6s.7 1.6 1.6 1.6 1.6-.7 1.6-1.6-.7-1.6-1.6-1.6zm0 5.7c-.9 0-1.6.7-1.6 1.6s.7 1.6 1.6 1.6 1.6-.7 1.6-1.6-.7-1.6-1.6-1.6zm0 5.7c-.9 0-1.6.7-1.6 1.6s.7 1.6 1.6 1.6 1.6-.7 1.6-1.6-.7-1.6-1.6-1.6zm0 5.8c-.9 0-1.6.7-1.6 1.6s.7 1.6 1.6 1.6 1.6-.7 1.6-1.6-.7-1.6-1.6-1.6zm0 5.7c-.9 0-1.6.7-1.6 1.6 0 .9.7 1.6 1.6 1.6s1.6-.7 1.6-1.6c0-.9-.7-1.6-1.6-1.6zm0 5.7c-.9 0-1.6.7-1.6 1.6 0 .9.7 1.6 1.6 1.6s1.6-.7 1.6-1.6c0-.8-.7-1.6-1.6-1.6zm4.5-95c-.9 0-1.6.7-1.6 1.6 0 .9.7 1.6 1.6 1.6s1.6-.7 1.6-1.6c0-.9-.7-1.6-1.6-1.6zm0 5.8c-.9 0-1.6.7-1.6 1.6s.7 1.6 1.6 1.6 1.6-.7 1.6-1.6-.7-1.6-1.6-1.6zm0 5.7c-.9 0-1.6.7-1.6 1.6 0 .9.7 1.6 1.6 1.6s1.6-.7 1.6-1.6c0-.9-.7-1.6-1.6-1.6zm0 5.8c-.9 0-1.6.7-1.6 1.6 0 .9.7 1.6 1.6 1.6s1.6-.7 1.6-1.6c0-.9-.7-1.6-1.6-1.6zm0 5.7c-.9 0-1.6.7-1.6 1.6s.7 1.6 1.6 1.6 1.6-.7 1.6-1.6-.7-1.6-1.6-1.6zm0 5.7c-.9 0-1.6.7-1.6 1.6s.7 1.6 1.6 1.6 1.6-.7 1.6-1.6-.7-1.6-1.6-1.6zm0 5.8c-.9 0-1.6.7-1.6 1.6s.7 1.6 1.6 1.6 1.6-.7 1.6-1.6-.7-1.6-1.6-1.6zm0 5.7c-.9 0-1.6.7-1.6 1.6s.7 1.6 1.6 1.6 1.6-.7 1.6-1.6-.7-1.6-1.6-1.6zm0 5.7c-.9 0-1.6.7-1.6 1.6 0 .9.7 1.6 1.6 1.6s1.6-.7 1.6-1.6c0-.8-.7-1.6-1.6-1.6zm0 5.8c-.9 0-1.6.7-1.6 1.6 0 .9.7 1.6 1.6 1.6s1.6-.7 1.6-1.6c0-.9-.7-1.6-1.6-1.6zm0 5.7c-.9 0-1.6.7-1.6 1.6 0 .9.7 1.6 1.6 1.6s1.6-.7 1.6-1.6c0-.9-.7-1.6-1.6-1.6zm0 5.8c-.9 0-1.6.7-1.6 1.6 0 .9.7 1.6 1.6 1.6s1.6-.7 1.6-1.6c0-.9-.7-1.6-1.6-1.6zm0 5.7c-.9 0-1.6.7-1.6 1.6 0 .9.7 1.6 1.6 1.6s1.6-.7 1.6-1.6c0-.9-.7-1.6-1.6-1.6zm0 5.7c-.9 0-1.6.7-1.6 1.6 0 .9.7 1.6 1.6 1.6s1.6-.7 1.6-1.6c0-.8-.7-1.6-1.6-1.6zm0 5.8c-.9 0-1.6.7-1.6 1.6s.7 1.6 1.6 1.6 1.6-.7 1.6-1.6-.7-1.6-1.6-1.6zm0 5.7c-.9 0-1.6.7-1.6 1.6s.7 1.6 1.6 1.6 1.6-.7 1.6-1.6-.7-1.6-1.6-1.6zm0 5.8c-.9 0-1.6.7-1.6 1.6s.7 1.6 1.6 1.6 1.6-.7 1.6-1.6-.7-1.6-1.6-1.6zm4.4-88.7c-.9 0-1.6.7-1.6 1.6 0 .9.7 1.6 1.6 1.6s1.6-.7 1.6-1.6c0-.9-.7-1.6-1.6-1.6zm0 5.8c-.9 0-1.6.7-1.6 1.6 0 .9.7 1.6 1.6 1.6s1.6-.7 1.6-1.6c0-.9-.7-1.6-1.6-1.6zm0 5.7c-.9 0-1.6.7-1.6 1.6 0 .9.7 1.6 1.6 1.6s1.6-.7 1.6-1.6c0-.9-.7-1.6-1.6-1.6zm0 5.7c-.9 0-1.6.7-1.6 1.6s.7 1.6 1.6 1.6 1.6-.7 1.6-1.6-.7-1.6-1.6-1.6zm0 5.8c-.9 0-1.6.7-1.6 1.6s.7 1.6 1.6 1.6 1.6-.7 1.6-1.6-.7-1.6-1.6-1.6zm0 5.7c-.9 0-1.6.7-1.6 1.6s.7 1.6 1.6 1.6 1.6-.7 1.6-1.6-.7-1.6-1.6-1.6zm0 5.8c-.9 0-1.6.7-1.6 1.6 0 .9.7 1.6 1.6 1.6s1.6-.7 1.6-1.6c0-.9-.7-1.6-1.6-1.6zm0 5.7c-.9 0-1.6.7-1.6 1.6 0 .9.7 1.6 1.6 1.6s1.6-.7 1.6-1.6c0-.9-.7-1.6-1.6-1.6zm0 5.7c-.9 0-1.6.7-1.6 1.6 0 .9.7 1.6 1.6 1.6s1.6-.7 1.6-1.6c0-.9-.7-1.6-1.6-1.6zm0 5.8c-.9 0-1.6.7-1.6 1.6 0 .9.7 1.6 1.6 1.6s1.6-.7 1.6-1.6c0-.9-.7-1.6-1.6-1.6zm0 5.7c-.9 0-1.6.7-1.6 1.6 0 .9.7 1.6 1.6 1.6s1.6-.7 1.6-1.6c0-.9-.7-1.6-1.6-1.6zm0 5.8c-.9 0-1.6.7-1.6 1.6s.7 1.6 1.6 1.6 1.6-.7 1.6-1.6-.7-1.6-1.6-1.6zm0 5.7c-.9 0-1.6.7-1.6 1.6s.7 1.6 1.6 1.6 1.6-.7 1.6-1.6-.7-1.6-1.6-1.6zm0 5.7c-.9 0-1.6.7-1.6 1.6s.7 1.6 1.6 1.6 1.6-.7 1.6-1.6-.7-1.6-1.6-1.6zm0 5.8c-.9 0-1.6.7-1.6 1.6s.7 1.6 1.6 1.6 1.6-.7 1.6-1.6-.7-1.6-1.6-1.6zm0 5.7c-.9 0-1.6.7-1.6 1.6 0 .9.7 1.6 1.6 1.6s1.6-.7 1.6-1.6c0-.9-.7-1.6-1.6-1.6zm0 5.7c-.9 0-1.6.7-1.6 1.6 0 .9.7 1.6 1.6 1.6s1.6-.7 1.6-1.6c0-.8-.7-1.6-1.6-1.6zm4.5-95c-.9 0-1.6.7-1.6 1.6 0 .9.7 1.6 1.6 1.6s1.6-.7 1.6-1.6c0-.9-.7-1.6-1.6-1.6zm0 5.8c-.9 0-1.6.7-1.6 1.6s.7 1.6 1.6 1.6 1.6-.7 1.6-1.6-.7-1.6-1.6-1.6zm0 5.7c-.9 0-1.6.7-1.6 1.6 0 .9.7 1.6 1.6 1.6s1.6-.7 1.6-1.6c0-.9-.7-1.6-1.6-1.6zm0 5.8c-.9 0-1.6.7-1.6 1.6 0 .9.7 1.6 1.6 1.6s1.6-.7 1.6-1.6c0-.9-.7-1.6-1.6-1.6zm0 5.7c-.9 0-1.6.7-1.6 1.6s.7 1.6 1.6 1.6 1.6-.7 1.6-1.6-.7-1.6-1.6-1.6zm0 5.7c-.9 0-1.6.7-1.6 1.6s.7 1.6 1.6 1.6 1.6-.7 1.6-1.6-.7-1.6-1.6-1.6zm0 5.8c-.9 0-1.6.7-1.6 1.6s.7 1.6 1.6 1.6 1.6-.7 1.6-1.6-.7-1.6-1.6-1.6zm0 5.7c-.9 0-1.6.7-1.6 1.6s.7 1.6 1.6 1.6 1.6-.7 1.6-1.6-.7-1.6-1.6-1.6zm0 5.7c-.9 0-1.6.7-1.6 1.6 0 .9.7 1.6 1.6 1.6s1.6-.7 1.6-1.6c0-.8-.7-1.6-1.6-1.6zm0 5.8c-.9 0-1.6.7-1.6 1.6 0 .9.7 1.6 1.6 1.6s1.6-.7 1.6-1.6c0-.9-.7-1.6-1.6-1.6zm0 5.7c-.9 0-1.6.7-1.6 1.6 0 .9.7 1.6 1.6 1.6s1.6-.7 1.6-1.6c0-.9-.7-1.6-1.6-1.6zm0 5.8c-.9 0-1.6.7-1.6 1.6 0 .9.7 1.6 1.6 1.6s1.6-.7 1.6-1.6c0-.9-.7-1.6-1.6-1.6zm0 5.7c-.9 0-1.6.7-1.6 1.6 0 .9.7 1.6 1.6 1.6s1.6-.7 1.6-1.6c0-.9-.7-1.6-1.6-1.6zm0 5.7c-.9 0-1.6.7-1.6 1.6 0 .9.7 1.6 1.6 1.6s1.6-.7 1.6-1.6c0-.8-.7-1.6-1.6-1.6zm0 5.8c-.9 0-1.6.7-1.6 1.6s.7 1.6 1.6 1.6 1.6-.7 1.6-1.6-.7-1.6-1.6-1.6zm0 5.7c-.9 0-1.6.7-1.6 1.6s.7 1.6 1.6 1.6 1.6-.7 1.6-1.6-.7-1.6-1.6-1.6zm0 5.8c-.9 0-1.6.7-1.6 1.6s.7 1.6 1.6 1.6 1.6-.7 1.6-1.6-.7-1.6-1.6-1.6zm4.5-88.7c-.9 0-1.6.7-1.6 1.6 0 .9.7 1.6 1.6 1.6.9 0 1.6-.7 1.6-1.6 0-.9-.8-1.6-1.6-1.6zm0 5.8c-.9 0-1.6.7-1.6 1.6 0 .9.7 1.6 1.6 1.6.9 0 1.6-.7 1.6-1.6 0-.9-.8-1.6-1.6-1.6zm0 5.7c-.9 0-1.6.7-1.6 1.6 0 .9.7 1.6 1.6 1.6.9 0 1.6-.7 1.6-1.6 0-.9-.8-1.6-1.6-1.6zm0 5.7c-.9 0-1.6.7-1.6 1.6s.7 1.6 1.6 1.6c.9 0 1.6-.7 1.6-1.6s-.8-1.6-1.6-1.6zm0 5.8c-.9 0-1.6.7-1.6 1.6s.7 1.6 1.6 1.6c.9 0 1.6-.7 1.6-1.6s-.8-1.6-1.6-1.6zm0 5.7c-.9 0-1.6.7-1.6 1.6s.7 1.6 1.6 1.6c.9 0 1.6-.7 1.6-1.6s-.8-1.6-1.6-1.6zm0 5.8c-.9 0-1.6.7-1.6 1.6 0 .9.7 1.6 1.6 1.6.9 0 1.6-.7 1.6-1.6 0-.9-.8-1.6-1.6-1.6zm0 5.7c-.9 0-1.6.7-1.6 1.6 0 .9.7 1.6 1.6 1.6.9 0 1.6-.7 1.6-1.6 0-.9-.8-1.6-1.6-1.6zm0 5.7c-.9 0-1.6.7-1.6 1.6 0 .9.7 1.6 1.6 1.6.9 0 1.6-.7 1.6-1.6 0-.9-.8-1.6-1.6-1.6zm0 5.8c-.9 0-1.6.7-1.6 1.6 0 .9.7 1.6 1.6 1.6.9 0 1.6-.7 1.6-1.6 0-.9-.8-1.6-1.6-1.6zm0 5.7c-.9 0-1.6.7-1.6 1.6 0 .9.7 1.6 1.6 1.6.9 0 1.6-.7 1.6-1.6 0-.9-.8-1.6-1.6-1.6zm0 5.8c-.9 0-1.6.7-1.6 1.6s.7 1.6 1.6 1.6c.9 0 1.6-.7 1.6-1.6s-.8-1.6-1.6-1.6zm0 5.7c-.9 0-1.6.7-1.6 1.6s.7 1.6 1.6 1.6c.9 0 1.6-.7 1.6-1.6s-.8-1.6-1.6-1.6zm0 5.7c-.9 0-1.6.7-1.6 1.6s.7 1.6 1.6 1.6c.9 0 1.6-.7 1.6-1.6s-.8-1.6-1.6-1.6zm0 5.8c-.9 0-1.6.7-1.6 1.6s.7 1.6 1.6 1.6c.9 0 1.6-.7 1.6-1.6s-.8-1.6-1.6-1.6zm0 5.7c-.9 0-1.6.7-1.6 1.6 0 .9.7 1.6 1.6 1.6.9 0 1.6-.7 1.6-1.6 0-.9-.8-1.6-1.6-1.6zm0 5.7c-.9 0-1.6.7-1.6 1.6 0 .9.7 1.6 1.6 1.6.9 0 1.6-.7 1.6-1.6 0-.8-.8-1.6-1.6-1.6zm4.4-95c-.9 0-1.6.7-1.6 1.6 0 .9.7 1.6 1.6 1.6s1.6-.7 1.6-1.6c0-.9-.7-1.6-1.6-1.6zm0 5.8c-.9 0-1.6.7-1.6 1.6s.7 1.6 1.6 1.6 1.6-.7 1.6-1.6-.7-1.6-1.6-1.6zm0 5.7c-.9 0-1.6.7-1.6 1.6 0 .9.7 1.6 1.6 1.6s1.6-.7 1.6-1.6c0-.9-.7-1.6-1.6-1.6zm0 5.8c-.9 0-1.6.7-1.6 1.6 0 .9.7 1.6 1.6 1.6s1.6-.7 1.6-1.6c0-.9-.7-1.6-1.6-1.6zm0 5.7c-.9 0-1.6.7-1.6 1.6s.7 1.6 1.6 1.6 1.6-.7 1.6-1.6-.7-1.6-1.6-1.6zm0 5.7c-.9 0-1.6.7-1.6 1.6s.7 1.6 1.6 1.6 1.6-.7 1.6-1.6-.7-1.6-1.6-1.6zm0 5.8c-.9 0-1.6.7-1.6 1.6s.7 1.6 1.6 1.6 1.6-.7 1.6-1.6-.7-1.6-1.6-1.6zm0 5.7c-.9 0-1.6.7-1.6 1.6s.7 1.6 1.6 1.6 1.6-.7 1.6-1.6-.7-1.6-1.6-1.6zm0 5.7c-.9 0-1.6.7-1.6 1.6 0 .9.7 1.6 1.6 1.6s1.6-.7 1.6-1.6c0-.8-.7-1.6-1.6-1.6zm0 5.8c-.9 0-1.6.7-1.6 1.6 0 .9.7 1.6 1.6 1.6s1.6-.7 1.6-1.6c0-.9-.7-1.6-1.6-1.6zm0 5.7c-.9 0-1.6.7-1.6 1.6 0 .9.7 1.6 1.6 1.6s1.6-.7 1.6-1.6c0-.9-.7-1.6-1.6-1.6zm0 5.8c-.9 0-1.6.7-1.6 1.6 0 .9.7 1.6 1.6 1.6s1.6-.7 1.6-1.6c0-.9-.7-1.6-1.6-1.6zm0 5.7c-.9 0-1.6.7-1.6 1.6 0 .9.7 1.6 1.6 1.6s1.6-.7 1.6-1.6c0-.9-.7-1.6-1.6-1.6zm0 5.7c-.9 0-1.6.7-1.6 1.6 0 .9.7 1.6 1.6 1.6s1.6-.7 1.6-1.6c0-.8-.7-1.6-1.6-1.6zm0 5.8c-.9 0-1.6.7-1.6 1.6s.7 1.6 1.6 1.6 1.6-.7 1.6-1.6-.7-1.6-1.6-1.6zm0 5.7c-.9 0-1.6.7-1.6 1.6s.7 1.6 1.6 1.6 1.6-.7 1.6-1.6-.7-1.6-1.6-1.6zm0 5.8c-.9 0-1.6.7-1.6 1.6s.7 1.6 1.6 1.6 1.6-.7 1.6-1.6-.7-1.6-1.6-1.6zm4.5-88.7c-.9 0-1.6.7-1.6 1.6 0 .9.7 1.6 1.6 1.6.9 0 1.6-.7 1.6-1.6 0-.9-.7-1.6-1.6-1.6zm0 5.8c-.9 0-1.6.7-1.6 1.6 0 .9.7 1.6 1.6 1.6.9 0 1.6-.7 1.6-1.6 0-.9-.7-1.6-1.6-1.6zm0 5.7c-.9 0-1.6.7-1.6 1.6 0 .9.7 1.6 1.6 1.6.9 0 1.6-.7 1.6-1.6 0-.9-.7-1.6-1.6-1.6zm0 5.7c-.9 0-1.6.7-1.6 1.6s.7 1.6 1.6 1.6c.9 0 1.6-.7 1.6-1.6s-.7-1.6-1.6-1.6zm0 5.8c-.9 0-1.6.7-1.6 1.6s.7 1.6 1.6 1.6c.9 0 1.6-.7 1.6-1.6s-.7-1.6-1.6-1.6zm0 5.7c-.9 0-1.6.7-1.6 1.6s.7 1.6 1.6 1.6c.9 0 1.6-.7 1.6-1.6s-.7-1.6-1.6-1.6zm0 5.8c-.9 0-1.6.7-1.6 1.6 0 .9.7 1.6 1.6 1.6.9 0 1.6-.7 1.6-1.6 0-.9-.7-1.6-1.6-1.6zm0 5.7c-.9 0-1.6.7-1.6 1.6 0 .9.7 1.6 1.6 1.6.9 0 1.6-.7 1.6-1.6 0-.9-.7-1.6-1.6-1.6zm0 5.7c-.9 0-1.6.7-1.6 1.6 0 .9.7 1.6 1.6 1.6.9 0 1.6-.7 1.6-1.6 0-.9-.7-1.6-1.6-1.6zm0 5.8c-.9 0-1.6.7-1.6 1.6 0 .9.7 1.6 1.6 1.6.9 0 1.6-.7 1.6-1.6 0-.9-.7-1.6-1.6-1.6zm0 5.7c-.9 0-1.6.7-1.6 1.6 0 .9.7 1.6 1.6 1.6.9 0 1.6-.7 1.6-1.6 0-.9-.7-1.6-1.6-1.6zm0 5.8c-.9 0-1.6.7-1.6 1.6s.7 1.6 1.6 1.6c.9 0 1.6-.7 1.6-1.6s-.7-1.6-1.6-1.6zm0 5.7c-.9 0-1.6.7-1.6 1.6s.7 1.6 1.6 1.6c.9 0 1.6-.7 1.6-1.6s-.7-1.6-1.6-1.6zm0 5.7c-.9 0-1.6.7-1.6 1.6s.7 1.6 1.6 1.6c.9 0 1.6-.7 1.6-1.6s-.7-1.6-1.6-1.6zm0 5.8c-.9 0-1.6.7-1.6 1.6s.7 1.6 1.6 1.6c.9 0 1.6-.7 1.6-1.6s-.7-1.6-1.6-1.6zm0 5.7c-.9 0-1.6.7-1.6 1.6 0 .9.7 1.6 1.6 1.6.9 0 1.6-.7 1.6-1.6 0-.9-.7-1.6-1.6-1.6zm0 5.7c-.9 0-1.6.7-1.6 1.6 0 .9.7 1.6 1.6 1.6.9 0 1.6-.7 1.6-1.6 0-.8-.7-1.6-1.6-1.6zm4.5-95c-.9 0-1.6.7-1.6 1.6 0 .9.7 1.6 1.6 1.6s1.6-.7 1.6-1.6c-.1-.9-.8-1.6-1.6-1.6zm0 5.8c-.9 0-1.6.7-1.6 1.6s.7 1.6 1.6 1.6 1.6-.7 1.6-1.6-.8-1.6-1.6-1.6zm0 5.7c-.9 0-1.6.7-1.6 1.6 0 .9.7 1.6 1.6 1.6s1.6-.7 1.6-1.6c-.1-.9-.8-1.6-1.6-1.6zm0 5.8c-.9 0-1.6.7-1.6 1.6 0 .9.7 1.6 1.6 1.6s1.6-.7 1.6-1.6c-.1-.9-.8-1.6-1.6-1.6zm0 5.7c-.9 0-1.6.7-1.6 1.6s.7 1.6 1.6 1.6 1.6-.7 1.6-1.6-.8-1.6-1.6-1.6zm0 5.7c-.9 0-1.6.7-1.6 1.6s.7 1.6 1.6 1.6 1.6-.7 1.6-1.6-.8-1.6-1.6-1.6zm0 5.8c-.9 0-1.6.7-1.6 1.6s.7 1.6 1.6 1.6 1.6-.7 1.6-1.6-.8-1.6-1.6-1.6zm0 5.7c-.9 0-1.6.7-1.6 1.6s.7 1.6 1.6 1.6 1.6-.7 1.6-1.6-.8-1.6-1.6-1.6zm0 5.7c-.9 0-1.6.7-1.6 1.6 0 .9.7 1.6 1.6 1.6s1.6-.7 1.6-1.6c-.1-.8-.8-1.6-1.6-1.6zm0 5.8c-.9 0-1.6.7-1.6 1.6 0 .9.7 1.6 1.6 1.6s1.6-.7 1.6-1.6c-.1-.9-.8-1.6-1.6-1.6zm0 5.7c-.9 0-1.6.7-1.6 1.6 0 .9.7 1.6 1.6 1.6s1.6-.7 1.6-1.6c-.1-.9-.8-1.6-1.6-1.6zm0 5.8c-.9 0-1.6.7-1.6 1.6 0 .9.7 1.6 1.6 1.6s1.6-.7 1.6-1.6c-.1-.9-.8-1.6-1.6-1.6zm0 5.7c-.9 0-1.6.7-1.6 1.6 0 .9.7 1.6 1.6 1.6s1.6-.7 1.6-1.6c-.1-.9-.8-1.6-1.6-1.6zm0 5.7c-.9 0-1.6.7-1.6 1.6 0 .9.7 1.6 1.6 1.6s1.6-.7 1.6-1.6c-.1-.8-.8-1.6-1.6-1.6zm0 5.8c-.9 0-1.6.7-1.6 1.6s.7 1.6 1.6 1.6 1.6-.7 1.6-1.6-.8-1.6-1.6-1.6zm0 5.7c-.9 0-1.6.7-1.6 1.6s.7 1.6 1.6 1.6 1.6-.7 1.6-1.6-.8-1.6-1.6-1.6zm0 5.8c-.9 0-1.6.7-1.6 1.6s.7 1.6 1.6 1.6 1.6-.7 1.6-1.6-.8-1.6-1.6-1.6zm4.4-88.7c-.9 0-1.6.7-1.6 1.6 0 .9.7 1.6 1.6 1.6.9 0 1.6-.7 1.6-1.6 0-.9-.7-1.6-1.6-1.6zm0 5.8c-.9 0-1.6.7-1.6 1.6 0 .9.7 1.6 1.6 1.6.9 0 1.6-.7 1.6-1.6 0-.9-.7-1.6-1.6-1.6zm0 5.7c-.9 0-1.6.7-1.6 1.6 0 .9.7 1.6 1.6 1.6.9 0 1.6-.7 1.6-1.6 0-.9-.7-1.6-1.6-1.6zm0 5.7c-.9 0-1.6.7-1.6 1.6s.7 1.6 1.6 1.6c.9 0 1.6-.7 1.6-1.6s-.7-1.6-1.6-1.6zm0 5.8c-.9 0-1.6.7-1.6 1.6s.7 1.6 1.6 1.6c.9 0 1.6-.7 1.6-1.6s-.7-1.6-1.6-1.6zm0 5.7c-.9 0-1.6.7-1.6 1.6s.7 1.6 1.6 1.6c.9 0 1.6-.7 1.6-1.6s-.7-1.6-1.6-1.6zm0 5.8c-.9 0-1.6.7-1.6 1.6 0 .9.7 1.6 1.6 1.6.9 0 1.6-.7 1.6-1.6 0-.9-.7-1.6-1.6-1.6zm0 5.7c-.9 0-1.6.7-1.6 1.6 0 .9.7 1.6 1.6 1.6.9 0 1.6-.7 1.6-1.6 0-.9-.7-1.6-1.6-1.6zm0 5.7c-.9 0-1.6.7-1.6 1.6 0 .9.7 1.6 1.6 1.6.9 0 1.6-.7 1.6-1.6 0-.9-.7-1.6-1.6-1.6zm0 5.8c-.9 0-1.6.7-1.6 1.6 0 .9.7 1.6 1.6 1.6.9 0 1.6-.7 1.6-1.6 0-.9-.7-1.6-1.6-1.6zm0 5.7c-.9 0-1.6.7-1.6 1.6 0 .9.7 1.6 1.6 1.6.9 0 1.6-.7 1.6-1.6 0-.9-.7-1.6-1.6-1.6zm0 5.8c-.9 0-1.6.7-1.6 1.6s.7 1.6 1.6 1.6c.9 0 1.6-.7 1.6-1.6s-.7-1.6-1.6-1.6zm0 5.7c-.9 0-1.6.7-1.6 1.6s.7 1.6 1.6 1.6c.9 0 1.6-.7 1.6-1.6s-.7-1.6-1.6-1.6zm0 5.7c-.9 0-1.6.7-1.6 1.6s.7 1.6 1.6 1.6c.9 0 1.6-.7 1.6-1.6s-.7-1.6-1.6-1.6zm0 5.8c-.9 0-1.6.7-1.6 1.6s.7 1.6 1.6 1.6c.9 0 1.6-.7 1.6-1.6s-.7-1.6-1.6-1.6zm0 5.7c-.9 0-1.6.7-1.6 1.6 0 .9.7 1.6 1.6 1.6.9 0 1.6-.7 1.6-1.6 0-.9-.7-1.6-1.6-1.6zm0 5.7c-.9 0-1.6.7-1.6 1.6 0 .9.7 1.6 1.6 1.6.9 0 1.6-.7 1.6-1.6 0-.8-.7-1.6-1.6-1.6zm4.5-95c-.9 0-1.6.7-1.6 1.6 0 .9.7 1.6 1.6 1.6s1.6-.7 1.6-1.6c0-.9-.7-1.6-1.6-1.6zm0 5.8c-.9 0-1.6.7-1.6 1.6s.7 1.6 1.6 1.6 1.6-.7 1.6-1.6-.7-1.6-1.6-1.6zm0 5.7c-.9 0-1.6.7-1.6 1.6 0 .9.7 1.6 1.6 1.6s1.6-.7 1.6-1.6c0-.9-.7-1.6-1.6-1.6zm0 5.8c-.9 0-1.6.7-1.6 1.6 0 .9.7 1.6 1.6 1.6s1.6-.7 1.6-1.6c0-.9-.7-1.6-1.6-1.6zm0 5.7c-.9 0-1.6.7-1.6 1.6s.7 1.6 1.6 1.6 1.6-.7 1.6-1.6-.7-1.6-1.6-1.6zm0 5.7c-.9 0-1.6.7-1.6 1.6s.7 1.6 1.6 1.6 1.6-.7 1.6-1.6-.7-1.6-1.6-1.6zm0 5.8c-.9 0-1.6.7-1.6 1.6s.7 1.6 1.6 1.6 1.6-.7 1.6-1.6-.7-1.6-1.6-1.6zm0 5.7c-.9 0-1.6.7-1.6 1.6s.7 1.6 1.6 1.6 1.6-.7 1.6-1.6-.7-1.6-1.6-1.6zm0 5.7c-.9 0-1.6.7-1.6 1.6 0 .9.7 1.6 1.6 1.6s1.6-.7 1.6-1.6c0-.8-.7-1.6-1.6-1.6zm0 5.8c-.9 0-1.6.7-1.6 1.6 0 .9.7 1.6 1.6 1.6s1.6-.7 1.6-1.6c0-.9-.7-1.6-1.6-1.6zm0 5.7c-.9 0-1.6.7-1.6 1.6 0 .9.7 1.6 1.6 1.6s1.6-.7 1.6-1.6c0-.9-.7-1.6-1.6-1.6zm0 5.8c-.9 0-1.6.7-1.6 1.6 0 .9.7 1.6 1.6 1.6s1.6-.7 1.6-1.6c0-.9-.7-1.6-1.6-1.6zm0 5.7c-.9 0-1.6.7-1.6 1.6 0 .9.7 1.6 1.6 1.6s1.6-.7 1.6-1.6c0-.9-.7-1.6-1.6-1.6zm0 5.7c-.9 0-1.6.7-1.6 1.6 0 .9.7 1.6 1.6 1.6s1.6-.7 1.6-1.6c0-.8-.7-1.6-1.6-1.6zm0 5.8c-.9 0-1.6.7-1.6 1.6s.7 1.6 1.6 1.6 1.6-.7 1.6-1.6-.7-1.6-1.6-1.6zm0 5.7c-.9 0-1.6.7-1.6 1.6s.7 1.6 1.6 1.6 1.6-.7 1.6-1.6-.7-1.6-1.6-1.6zm0 5.8c-.9 0-1.6.7-1.6 1.6s.7 1.6 1.6 1.6 1.6-.7 1.6-1.6-.7-1.6-1.6-1.6zm4.4-88.7c-.9 0-1.6.7-1.6 1.6 0 .9.7 1.6 1.6 1.6.9 0 1.6-.7 1.6-1.6 0-.9-.7-1.6-1.6-1.6zm0 5.8c-.9 0-1.6.7-1.6 1.6 0 .9.7 1.6 1.6 1.6.9 0 1.6-.7 1.6-1.6 0-.9-.7-1.6-1.6-1.6zm0 5.7c-.9 0-1.6.7-1.6 1.6 0 .9.7 1.6 1.6 1.6.9 0 1.6-.7 1.6-1.6 0-.9-.7-1.6-1.6-1.6zm0 5.7c-.9 0-1.6.7-1.6 1.6s.7 1.6 1.6 1.6c.9 0 1.6-.7 1.6-1.6s-.7-1.6-1.6-1.6zm0 5.8c-.9 0-1.6.7-1.6 1.6s.7 1.6 1.6 1.6c.9 0 1.6-.7 1.6-1.6s-.7-1.6-1.6-1.6zm0 5.7c-.9 0-1.6.7-1.6 1.6s.7 1.6 1.6 1.6c.9 0 1.6-.7 1.6-1.6s-.7-1.6-1.6-1.6zm0 5.8c-.9 0-1.6.7-1.6 1.6 0 .9.7 1.6 1.6 1.6.9 0 1.6-.7 1.6-1.6 0-.9-.7-1.6-1.6-1.6zm0 5.7c-.9 0-1.6.7-1.6 1.6 0 .9.7 1.6 1.6 1.6.9 0 1.6-.7 1.6-1.6 0-.9-.7-1.6-1.6-1.6zm0 5.7c-.9 0-1.6.7-1.6 1.6 0 .9.7 1.6 1.6 1.6.9 0 1.6-.7 1.6-1.6 0-.9-.7-1.6-1.6-1.6zm0 5.8c-.9 0-1.6.7-1.6 1.6 0 .9.7 1.6 1.6 1.6.9 0 1.6-.7 1.6-1.6 0-.9-.7-1.6-1.6-1.6zm0 5.7c-.9 0-1.6.7-1.6 1.6 0 .9.7 1.6 1.6 1.6.9 0 1.6-.7 1.6-1.6 0-.9-.7-1.6-1.6-1.6zm0 5.8c-.9 0-1.6.7-1.6 1.6s.7 1.6 1.6 1.6c.9 0 1.6-.7 1.6-1.6s-.7-1.6-1.6-1.6zm0 5.7c-.9 0-1.6.7-1.6 1.6s.7 1.6 1.6 1.6c.9 0 1.6-.7 1.6-1.6s-.7-1.6-1.6-1.6zm0 5.7c-.9 0-1.6.7-1.6 1.6s.7 1.6 1.6 1.6c.9 0 1.6-.7 1.6-1.6s-.7-1.6-1.6-1.6zm0 5.8c-.9 0-1.6.7-1.6 1.6s.7 1.6 1.6 1.6c.9 0 1.6-.7 1.6-1.6s-.7-1.6-1.6-1.6zm0 5.7c-.9 0-1.6.7-1.6 1.6 0 .9.7 1.6 1.6 1.6.9 0 1.6-.7 1.6-1.6 0-.9-.7-1.6-1.6-1.6zm0 5.7c-.9 0-1.6.7-1.6 1.6 0 .9.7 1.6 1.6 1.6.9 0 1.6-.7 1.6-1.6 0-.8-.7-1.6-1.6-1.6zm4.5-95c-.9 0-1.6.7-1.6 1.6 0 .9.7 1.6 1.6 1.6s1.6-.7 1.6-1.6c0-.9-.7-1.6-1.6-1.6zm0 5.8c-.9 0-1.6.7-1.6 1.6s.7 1.6 1.6 1.6 1.6-.7 1.6-1.6-.7-1.6-1.6-1.6zm0 5.7c-.9 0-1.6.7-1.6 1.6 0 .9.7 1.6 1.6 1.6s1.6-.7 1.6-1.6c0-.9-.7-1.6-1.6-1.6zm0 5.8c-.9 0-1.6.7-1.6 1.6 0 .9.7 1.6 1.6 1.6s1.6-.7 1.6-1.6c0-.9-.7-1.6-1.6-1.6zm0 5.7c-.9 0-1.6.7-1.6 1.6s.7 1.6 1.6 1.6 1.6-.7 1.6-1.6-.7-1.6-1.6-1.6zm0 5.7c-.9 0-1.6.7-1.6 1.6s.7 1.6 1.6 1.6 1.6-.7 1.6-1.6-.7-1.6-1.6-1.6zm0 5.8c-.9 0-1.6.7-1.6 1.6s.7 1.6 1.6 1.6 1.6-.7 1.6-1.6-.7-1.6-1.6-1.6zm0 5.7c-.9 0-1.6.7-1.6 1.6s.7 1.6 1.6 1.6 1.6-.7 1.6-1.6-.7-1.6-1.6-1.6zm0 5.7c-.9 0-1.6.7-1.6 1.6 0 .9.7 1.6 1.6 1.6s1.6-.7 1.6-1.6c0-.8-.7-1.6-1.6-1.6zm0 5.8c-.9 0-1.6.7-1.6 1.6 0 .9.7 1.6 1.6 1.6s1.6-.7 1.6-1.6c0-.9-.7-1.6-1.6-1.6zm0 5.7c-.9 0-1.6.7-1.6 1.6 0 .9.7 1.6 1.6 1.6s1.6-.7 1.6-1.6c0-.9-.7-1.6-1.6-1.6zm0 5.8c-.9 0-1.6.7-1.6 1.6 0 .9.7 1.6 1.6 1.6s1.6-.7 1.6-1.6c0-.9-.7-1.6-1.6-1.6zm0 5.7c-.9 0-1.6.7-1.6 1.6 0 .9.7 1.6 1.6 1.6s1.6-.7 1.6-1.6c0-.9-.7-1.6-1.6-1.6zm0 5.7c-.9 0-1.6.7-1.6 1.6 0 .9.7 1.6 1.6 1.6s1.6-.7 1.6-1.6c0-.8-.7-1.6-1.6-1.6zm0 5.8c-.9 0-1.6.7-1.6 1.6s.7 1.6 1.6 1.6 1.6-.7 1.6-1.6-.7-1.6-1.6-1.6zm0 5.7c-.9 0-1.6.7-1.6 1.6s.7 1.6 1.6 1.6 1.6-.7 1.6-1.6-.7-1.6-1.6-1.6zm0 5.8c-.9 0-1.6.7-1.6 1.6s.7 1.6 1.6 1.6 1.6-.7 1.6-1.6-.7-1.6-1.6-1.6zm4.5-88.7c-.9 0-1.6.7-1.6 1.6 0 .9.7 1.6 1.6 1.6s1.6-.7 1.6-1.6c0-.9-.7-1.6-1.6-1.6zm0 5.8c-.9 0-1.6.7-1.6 1.6 0 .9.7 1.6 1.6 1.6s1.6-.7 1.6-1.6c0-.9-.7-1.6-1.6-1.6zm0 5.7c-.9 0-1.6.7-1.6 1.6 0 .9.7 1.6 1.6 1.6s1.6-.7 1.6-1.6c0-.9-.7-1.6-1.6-1.6zm0 5.7c-.9 0-1.6.7-1.6 1.6s.7 1.6 1.6 1.6 1.6-.7 1.6-1.6-.7-1.6-1.6-1.6zm0 5.8c-.9 0-1.6.7-1.6 1.6s.7 1.6 1.6 1.6 1.6-.7 1.6-1.6-.7-1.6-1.6-1.6zm0 5.7c-.9 0-1.6.7-1.6 1.6s.7 1.6 1.6 1.6 1.6-.7 1.6-1.6-.7-1.6-1.6-1.6zm0 5.8c-.9 0-1.6.7-1.6 1.6 0 .9.7 1.6 1.6 1.6s1.6-.7 1.6-1.6c0-.9-.7-1.6-1.6-1.6zm0 5.7c-.9 0-1.6.7-1.6 1.6 0 .9.7 1.6 1.6 1.6s1.6-.7 1.6-1.6c0-.9-.7-1.6-1.6-1.6zm0 5.7c-.9 0-1.6.7-1.6 1.6 0 .9.7 1.6 1.6 1.6s1.6-.7 1.6-1.6c0-.9-.7-1.6-1.6-1.6zm0 5.8c-.9 0-1.6.7-1.6 1.6 0 .9.7 1.6 1.6 1.6s1.6-.7 1.6-1.6c0-.9-.7-1.6-1.6-1.6zm0 5.7c-.9 0-1.6.7-1.6 1.6 0 .9.7 1.6 1.6 1.6s1.6-.7 1.6-1.6c0-.9-.7-1.6-1.6-1.6zm0 5.8c-.9 0-1.6.7-1.6 1.6s.7 1.6 1.6 1.6 1.6-.7 1.6-1.6-.7-1.6-1.6-1.6zm0 5.7c-.9 0-1.6.7-1.6 1.6s.7 1.6 1.6 1.6 1.6-.7 1.6-1.6-.7-1.6-1.6-1.6zm0 5.7c-.9 0-1.6.7-1.6 1.6s.7 1.6 1.6 1.6 1.6-.7 1.6-1.6-.7-1.6-1.6-1.6zm0 5.8c-.9 0-1.6.7-1.6 1.6s.7 1.6 1.6 1.6 1.6-.7 1.6-1.6-.7-1.6-1.6-1.6zm0 5.7c-.9 0-1.6.7-1.6 1.6 0 .9.7 1.6 1.6 1.6s1.6-.7 1.6-1.6c0-.9-.7-1.6-1.6-1.6zm0 5.7c-.9 0-1.6.7-1.6 1.6 0 .9.7 1.6 1.6 1.6s1.6-.7 1.6-1.6c0-.8-.7-1.6-1.6-1.6zm4.4-95c-.9 0-1.6.7-1.6 1.6 0 .9.7 1.6 1.6 1.6s1.6-.7 1.6-1.6c0-.9-.7-1.6-1.6-1.6zm0 5.8c-.9 0-1.6.7-1.6 1.6s.7 1.6 1.6 1.6 1.6-.7 1.6-1.6-.7-1.6-1.6-1.6zm0 5.7c-.9 0-1.6.7-1.6 1.6 0 .9.7 1.6 1.6 1.6s1.6-.7 1.6-1.6c0-.9-.7-1.6-1.6-1.6zm0 5.8c-.9 0-1.6.7-1.6 1.6 0 .9.7 1.6 1.6 1.6s1.6-.7 1.6-1.6c0-.9-.7-1.6-1.6-1.6zm0 5.7c-.9 0-1.6.7-1.6 1.6s.7 1.6 1.6 1.6 1.6-.7 1.6-1.6-.7-1.6-1.6-1.6zm0 5.7c-.9 0-1.6.7-1.6 1.6s.7 1.6 1.6 1.6 1.6-.7 1.6-1.6-.7-1.6-1.6-1.6zm0 5.8c-.9 0-1.6.7-1.6 1.6s.7 1.6 1.6 1.6 1.6-.7 1.6-1.6-.7-1.6-1.6-1.6zm0 5.7c-.9 0-1.6.7-1.6 1.6s.7 1.6 1.6 1.6 1.6-.7 1.6-1.6-.7-1.6-1.6-1.6zm0 5.7c-.9 0-1.6.7-1.6 1.6 0 .9.7 1.6 1.6 1.6s1.6-.7 1.6-1.6c0-.8-.7-1.6-1.6-1.6zm0 5.8c-.9 0-1.6.7-1.6 1.6 0 .9.7 1.6 1.6 1.6s1.6-.7 1.6-1.6c0-.9-.7-1.6-1.6-1.6zm0 5.7c-.9 0-1.6.7-1.6 1.6 0 .9.7 1.6 1.6 1.6s1.6-.7 1.6-1.6c0-.9-.7-1.6-1.6-1.6zm0 5.8c-.9 0-1.6.7-1.6 1.6 0 .9.7 1.6 1.6 1.6s1.6-.7 1.6-1.6c0-.9-.7-1.6-1.6-1.6zm0 5.7c-.9 0-1.6.7-1.6 1.6 0 .9.7 1.6 1.6 1.6s1.6-.7 1.6-1.6c0-.9-.7-1.6-1.6-1.6zm0 5.7c-.9 0-1.6.7-1.6 1.6 0 .9.7 1.6 1.6 1.6s1.6-.7 1.6-1.6c0-.8-.7-1.6-1.6-1.6zm0 5.8c-.9 0-1.6.7-1.6 1.6s.7 1.6 1.6 1.6 1.6-.7 1.6-1.6-.7-1.6-1.6-1.6zm0 5.7c-.9 0-1.6.7-1.6 1.6s.7 1.6 1.6 1.6 1.6-.7 1.6-1.6-.7-1.6-1.6-1.6zm0 5.8c-.9 0-1.6.7-1.6 1.6s.7 1.6 1.6 1.6 1.6-.7 1.6-1.6-.7-1.6-1.6-1.6zm4.5-88.7c-.9 0-1.6.7-1.6 1.6 0 .9.7 1.6 1.6 1.6s1.6-.7 1.6-1.6c0-.9-.7-1.6-1.6-1.6zm0 5.8c-.9 0-1.6.7-1.6 1.6 0 .9.7 1.6 1.6 1.6s1.6-.7 1.6-1.6c0-.9-.7-1.6-1.6-1.6zm0 5.7c-.9 0-1.6.7-1.6 1.6 0 .9.7 1.6 1.6 1.6s1.6-.7 1.6-1.6c0-.9-.7-1.6-1.6-1.6zm0 5.7c-.9 0-1.6.7-1.6 1.6s.7 1.6 1.6 1.6 1.6-.7 1.6-1.6-.7-1.6-1.6-1.6zm0 5.8c-.9 0-1.6.7-1.6 1.6s.7 1.6 1.6 1.6 1.6-.7 1.6-1.6-.7-1.6-1.6-1.6zm0 5.7c-.9 0-1.6.7-1.6 1.6s.7 1.6 1.6 1.6 1.6-.7 1.6-1.6-.7-1.6-1.6-1.6zm0 5.8c-.9 0-1.6.7-1.6 1.6 0 .9.7 1.6 1.6 1.6s1.6-.7 1.6-1.6c0-.9-.7-1.6-1.6-1.6zm0 5.7c-.9 0-1.6.7-1.6 1.6 0 .9.7 1.6 1.6 1.6s1.6-.7 1.6-1.6c0-.9-.7-1.6-1.6-1.6zm0 5.7c-.9 0-1.6.7-1.6 1.6 0 .9.7 1.6 1.6 1.6s1.6-.7 1.6-1.6c0-.9-.7-1.6-1.6-1.6zm0 5.8c-.9 0-1.6.7-1.6 1.6 0 .9.7 1.6 1.6 1.6s1.6-.7 1.6-1.6c0-.9-.7-1.6-1.6-1.6zm0 5.7c-.9 0-1.6.7-1.6 1.6 0 .9.7 1.6 1.6 1.6s1.6-.7 1.6-1.6c0-.9-.7-1.6-1.6-1.6zm0 5.8c-.9 0-1.6.7-1.6 1.6s.7 1.6 1.6 1.6 1.6-.7 1.6-1.6-.7-1.6-1.6-1.6zm0 5.7c-.9 0-1.6.7-1.6 1.6s.7 1.6 1.6 1.6 1.6-.7 1.6-1.6-.7-1.6-1.6-1.6zm0 5.7c-.9 0-1.6.7-1.6 1.6s.7 1.6 1.6 1.6 1.6-.7 1.6-1.6-.7-1.6-1.6-1.6zm0 5.8c-.9 0-1.6.7-1.6 1.6s.7 1.6 1.6 1.6 1.6-.7 1.6-1.6-.7-1.6-1.6-1.6zm0 5.7c-.9 0-1.6.7-1.6 1.6 0 .9.7 1.6 1.6 1.6s1.6-.7 1.6-1.6c0-.9-.7-1.6-1.6-1.6zm0 5.7c-.9 0-1.6.7-1.6 1.6 0 .9.7 1.6 1.6 1.6s1.6-.7 1.6-1.6c0-.8-.7-1.6-1.6-1.6zm4.5-95c-.9 0-1.6.7-1.6 1.6 0 .9.7 1.6 1.6 1.6.9 0 1.6-.7 1.6-1.6 0-.9-.8-1.6-1.6-1.6zm0 5.8c-.9 0-1.6.7-1.6 1.6s.7 1.6 1.6 1.6c.9 0 1.6-.7 1.6-1.6s-.8-1.6-1.6-1.6zm0 5.7c-.9 0-1.6.7-1.6 1.6 0 .9.7 1.6 1.6 1.6.9 0 1.6-.7 1.6-1.6 0-.9-.8-1.6-1.6-1.6zm0 5.8c-.9 0-1.6.7-1.6 1.6 0 .9.7 1.6 1.6 1.6.9 0 1.6-.7 1.6-1.6 0-.9-.8-1.6-1.6-1.6zm0 5.7c-.9 0-1.6.7-1.6 1.6s.7 1.6 1.6 1.6c.9 0 1.6-.7 1.6-1.6s-.8-1.6-1.6-1.6zm0 5.7c-.9 0-1.6.7-1.6 1.6s.7 1.6 1.6 1.6c.9 0 1.6-.7 1.6-1.6s-.8-1.6-1.6-1.6zm0 5.8c-.9 0-1.6.7-1.6 1.6s.7 1.6 1.6 1.6c.9 0 1.6-.7 1.6-1.6s-.8-1.6-1.6-1.6zm0 5.7c-.9 0-1.6.7-1.6 1.6s.7 1.6 1.6 1.6c.9 0 1.6-.7 1.6-1.6s-.8-1.6-1.6-1.6zm0 5.7c-.9 0-1.6.7-1.6 1.6 0 .9.7 1.6 1.6 1.6.9 0 1.6-.7 1.6-1.6 0-.8-.8-1.6-1.6-1.6zm0 5.8c-.9 0-1.6.7-1.6 1.6 0 .9.7 1.6 1.6 1.6.9 0 1.6-.7 1.6-1.6 0-.9-.8-1.6-1.6-1.6zm0 5.7c-.9 0-1.6.7-1.6 1.6 0 .9.7 1.6 1.6 1.6.9 0 1.6-.7 1.6-1.6 0-.9-.8-1.6-1.6-1.6zm0 5.8c-.9 0-1.6.7-1.6 1.6 0 .9.7 1.6 1.6 1.6.9 0 1.6-.7 1.6-1.6 0-.9-.8-1.6-1.6-1.6zm0 5.7c-.9 0-1.6.7-1.6 1.6 0 .9.7 1.6 1.6 1.6.9 0 1.6-.7 1.6-1.6 0-.9-.8-1.6-1.6-1.6zm0 5.7c-.9 0-1.6.7-1.6 1.6 0 .9.7 1.6 1.6 1.6.9 0 1.6-.7 1.6-1.6 0-.8-.8-1.6-1.6-1.6zm0 5.8c-.9 0-1.6.7-1.6 1.6s.7 1.6 1.6 1.6c.9 0 1.6-.7 1.6-1.6s-.8-1.6-1.6-1.6zm0 5.7c-.9 0-1.6.7-1.6 1.6s.7 1.6 1.6 1.6c.9 0 1.6-.7 1.6-1.6s-.8-1.6-1.6-1.6zm0 5.8c-.9 0-1.6.7-1.6 1.6s.7 1.6 1.6 1.6c.9 0 1.6-.7 1.6-1.6s-.8-1.6-1.6-1.6z"/>
    </g>
  </g>
  <path d="M568.9 171.1c-5 0-8.4-.3-8.8-.3a1.56 1.56 0 1 1 .3-3.1c.2 0 21.5 1.8 35.6-3.7.8-.3 1.7.1 2.1.9.3.8-.1 1.7-.9 2.1-9.1 3.3-20.6 4.1-28.3 4.1z"/>
  <path fill="#332e2b" d="M602.5 155.9c-2.5 0-5.1-.6-7.5-1.7l-5.4-2.6c-1.5-.7-3-1.1-4.6-1.3l-5.4-.6c-1.6-.2-3.3-.1-4.9.2-2.4.5-4.9.5-7.3 0-1.6-.3-3.3-.4-4.9-.2l-5.4.6c-1.6.2-3.2.6-4.6 1.3l-3.8 1.8-.3.3c-1.4 1-13.3 5.9-21.7-3.5L513.1 135l1.9-1.7 13.6 15.2c6.3 7.1 14.7 4.6 17.4 3.5l-.1-.1 5.4-2.6c1.7-.8 3.5-1.3 5.4-1.6l5.4-.6c1.9-.2 3.8-.1 5.7.3 2 .4 4.2.4 6.2 0 1.9-.4 3.8-.5 5.7-.3l5.4.6c1.9.2 3.7.8 5.4 1.6l5.4 2.6c5.9 2.8 13.1 1.4 17.4-3.4l13.5-15.2 1.9 1.7-13.5 15.2c-3.1 3.8-7.8 5.7-12.7 5.7z"/>
  <path d="M640.9 79.9c0-12.2-3.1-23.7-8.6-33.6 2.2 7.1 3.5 14.7 3.5 22.6a73 73 0 0 1-5.7 28.6c-3.9 9.4-6 19.5-5.9 29.8v.7c0 35.3-19.9 70.4-45.6 76.1 28.1-3.8 49.8-29.3 49.8-64.9v-.7c-.1-10.3 2.2-20.5 6.4-29.9 3.9-8.8 6.1-18.5 6.1-28.7zM518.3 128v-.3c0-10.5-2-20.9-6-30.5-3.7-8.9-5.7-18.7-5.6-29.1.1-7.6 1.3-14.9 3.4-21.7-5.4 9.8-8.5 20.9-8.6 32.8-.1 10.4 2.1 20.3 6 29.2 4.3 9.6 6.5 20 6.5 30.5v.3c0 35.6 21.7 61.1 49.8 64.9-25.7-5.7-45.5-40.8-45.5-76.1zm45.6 76.1c2.4.5 4.8.8 7.3.8s4.9-.3 7.3-.8c-2.4.3-4.8.5-7.3.5s-4.9-.2-7.3-.5z" opacity=".29"/>
  <path d="M563.7 130.8c.9-1.2 2.2-2 3.6-2.6a11.17 11.17 0 0 1 8.8 0c1.4.6 2.7 1.5 3.6 2.6.4.5.3 1.2-.2 1.6-.4.3-.9.3-1.3.1a12.57 12.57 0 0 0-6.4-1.9 12.57 12.57 0 0 0-6.4 1.9c-.6.3-1.3.1-1.6-.4-.5-.4-.4-.9-.1-1.3zm14.2 11.2h8.7c.5-1.2-.2-2.8-1.4-3.4-1.2-.7-2.6-.6-3.9-.1-1.3.5-2.3 1.3-3.4 2.1-.3.2-.6.5-.7.9-.2.3.3.6.7.5zm-12.4 0h-8.7c-.5-1.2.2-2.8 1.4-3.4 1.2-.7 2.6-.6 3.9-.1 1.3.5 2.3 1.3 3.4 2.1.3.2.6.5.7.9.2.3-.3.6-.7.5z"/>
  <path id="IuGHRM.tif_3_" d="M506.3 98.2c.6-.8 2.1-.8 3.2-1.1 4.1-.9 8.3-1.8 12.5-2.5 6.5-1.2 13.1-1.2 19.7-.8 8.5.5 16.8 2 25.2 3.5 3.8.7 7.8.4 11.6-.4 11-2.3 22-3.7 33.3-3.2 6.1.2 12 1.4 17.8 2.9 1.7.4 3.4.6 5.1.9 1.5.3 1.8.8 1.6 2.3a5.1 5.1 0 0 1-2.1 3.8c-3.9 2.8-5.8 6.7-5.8 11.6 0 2.5-.3 5-.9 7.4-1.7 6.8-6.2 11-12.8 12.9-7.6 2.2-15.3 2.2-22.9.4-7.8-1.9-12.1-7.2-13.6-14.9-.7-3.3-1-6.6-1.5-9.9l-.3-1.2c-1-3.5-5-5.2-8.1-3.2-.9.6-1.8 1.9-2 3.1-.6 2.7-.8 5.5-1.4 8.3-.4 2.3-.9 4.7-1.7 6.9-2.1 6-6.5 9.5-12.6 11a43.7 43.7 0 0 1-22.7-.4c-8-2.3-12.4-7.8-13.5-16-.3-1.9-.4-3.8-.4-5.7-.1-4.1-1.9-7.3-5-9.7-1.3-1-2.4-2.1-2.8-3.8 0-1-.2-1.6.1-2.2zm98.1.8c-2.3 0-4.7-.1-7 0-3.1.2-6.1.7-8.8 2.2-2.6 1.5-4.4 3.6-4.9 6.6-.7 4.4-.5 8.8 1.1 13.1 1.7 4.8 5 7.9 10 9.1 3.5.8 7.1 1.1 10.8.8 4.2-.3 8.2-1.1 11.9-3.4 3.2-2 5.4-4.8 5.6-8.6.3-4.1.2-8.2.1-12.3-.1-2-1.2-3.8-2.9-4.8-1.2-.7-2.6-1.5-3.9-1.7-4.1-.8-12-1.2-12-1zm-66-.2c-1.1 0-2.1-.1-3.2 0-3.2.3-6.4.5-9.4 1.2-4.4 1.1-6.2 3.8-6.2 8.3v8.3c0 1.2.1 2.4.4 3.5 1.2 4.7 4.6 7.3 8.9 8.9 5.9 2.2 12 2.2 18.2 1.1 5.7-1 9.3-4.4 11.1-9.8 1.3-3.9 1.5-7.9 1-12a9 9 0 0 0-4.5-6.9c-1.4-.8-2.9-1.5-4.5-1.8-3.9-.4-11.8-.9-11.8-.8z"/>
  <path id="IuGHRM.tif_2_" fill="#a8e8ff" d="M604.4 99c-2.3 0-4.7-.1-7 0-3.1.2-6.1.7-8.8 2.2-2.6 1.5-4.4 3.6-4.9 6.6-.7 4.4-.5 8.8 1.1 13.1 1.7 4.8 5 7.9 10 9.1 3.5.8 7.1 1.1 10.8.8 4.2-.3 8.2-1.1 11.9-3.4 3.2-2 5.4-4.8 5.6-8.6.3-4.1.2-8.2.1-12.3-.1-2-1.2-3.8-2.9-4.8-1.2-.7-2.6-1.5-3.9-1.7-4.1-.8-12-1.2-12-1zm-66-.2c-1.1 0-2.1-.1-3.2 0-3.2.3-6.4.5-9.4 1.2-4.4 1.1-6.2 3.8-6.2 8.3v8.3c0 1.2.1 2.4.4 3.5 1.2 4.7 4.6 7.3 8.9 8.9 5.9 2.2 12 2.2 18.2 1.1 5.7-1 9.3-4.4 11.1-9.8 1.3-3.9 1.5-7.9 1-12a9 9 0 0 0-4.5-6.9c-1.4-.8-2.9-1.5-4.5-1.8-3.9-.4-11.8-.9-11.8-.8z"/>
  <g class="st15">
    <defs>
      <path id="SVGID_3_" d="M604.4 99c-2.3 0-4.7-.1-7 0-3.1.2-6.1.7-8.8 2.2-2.6 1.5-4.4 3.6-4.9 6.6-.7 4.4-.5 8.8 1.1 13.1 1.7 4.8 5 7.9 10 9.1 3.5.8 7.1 1.1 10.8.8 4.2-.3 8.2-1.1 11.9-3.4 3.2-2 5.4-4.8 5.6-8.6.3-4.1.2-8.2.1-12.3-.1-2-1.2-3.8-2.9-4.8-1.2-.7-2.6-1.5-3.9-1.7-4.1-.8-12-1.2-12-1zm-66-.2c-1.1 0-2.1-.1-3.2 0-3.2.3-6.4.5-9.4 1.2-4.4 1.1-6.2 3.8-6.2 8.3v8.3c0 1.2.1 2.4.4 3.5 1.2 4.7 4.6 7.3 8.9 8.9 5.9 2.2 12 2.2 18.2 1.1 5.7-1 9.3-4.4 11.1-9.8 1.3-3.9 1.5-7.9 1-12a9 9 0 0 0-4.5-6.9c-1.4-.8-2.9-1.5-4.5-1.8-3.9-.4-11.8-.9-11.8-.8z" class="st15"/>
    </defs>
    <clipPath id="SVGID_4_">
      <use overflow="visible" xlink:href="#SVGID_3_"/>
    </clipPath>
    <g clip-path="url(#SVGID_4_)">
      <path d="M530.2 91.7h8.9v48.5h-8.9z" class="st17" transform="rotate(-32.64 534.74 115.9)"/>
      <path d="M540.4 86.2h3.2v48.5h-3.2z" class="st17" transform="rotate(-32.64 542.07 110.49)"/>
      <path d="M594 91.7h8.9v48.5H594z" class="st17" transform="rotate(-32.64 598.5 115.9)"/>
      <path d="M604.2 86.2h3.2v48.5h-3.2z" class="st17" transform="rotate(-32.64 605.85 110.49)"/>
    </g>
  </g>
  <g class="st18">
    <path d="M545.4 61.4h55.4s-39.7-4.4-55.4 0z" class="st19"/>
  </g>
  <g class="st18">
    <path d="M558.8 68.1h27.7s-19.9-3.1-27.7 0z" class="st19"/>
  </g>
  <g class="st20">
    <ellipse cx="570" cy="29.3" class="st17" rx="24.7" ry="8.7"/>
  </g>
  <g class="st20">
    <ellipse cx="550.8" cy="41.5" class="st17" rx="8.1" ry="2.8"/>
  </g>
  <g class="st21">
    <path d="M525.2 91.1c4.2-.7 14.5-1.9 24.4-.2.5.1.7-.6.2-.8-4.6-2.2-15-5.7-24.9.2-.3.3-.1.9.3.8z" class="st22"/>
  </g>
  <g class="st21">
    <path d="M617.2 91.1c-4.2-.7-14.5-1.9-24.4-.2-.5.1-.7-.6-.2-.8 4.6-2.2 15-5.7 24.9.2.4.3.2.9-.3.8z" class="st22"/>
  </g>
  <path d="M765.7 159.3c-1.7 4.2-5 6.6-8.7 6.6-3.9 0-7.1-2.4-8.7-6.7L735.1 125l-.1-.1c-.1-.3-.3-.6-.7-.6-.2 0-.4.2-.7.4l-13.3 34.5c-1.5 4.2-4.9 6.6-8.6 6.6-3.9 0-7.1-2.4-8.7-6.7L677.4 93l.2-.1c5.2-2.1 11.3.6 13.3 5.7 6.2 15.7 17.1 44.3 20.7 53.6l16.1-41.8c1.1-2.2 3.6-3.8 6.5-3.8 3 0 5.6 1.7 6.6 4 6 15 13.2 34.3 16.1 41.6l20.7-53.7c2-5.1 8.2-7.6 13.3-5.6l.2.1-25.4 66.3zm39.6 6.7c-5.7 0-10.6-4.6-10.6-10.4V92.3c5.7 0 10.6 4.6 10.6 10.3V166zm63.2-5.2c-6.3 3.4-14.7 5.3-23.5 5.3s-17.2-1.9-23.5-5.3c-6.4-3.3-10.3-7.9-11.4-13.1 3.9-2.2 8.9-2.1 12.5 1.1 3.6 3.3 11.5 6.7 22.4 6.7 13.5 0 22.6-5 24.2-9.2l.1-.1c.7-1.8-.2-4.9-1.2-6.3-3.1-4.3-10.9-6.1-25-7.8-7.4-.9-15-1.9-21-4.3-10-4.1-12.1-11.1-12.1-16.4 0-6 4.2-11 11.8-14.6 6.3-3 14.6-4.5 23.3-4.5 8.7 0 17 1.5 23.3 4.5 6 2.6 9.8 6.4 11.3 10.7-3.5 2.9-8.6 3.4-12.4.8-3.6-2.4-11-5.4-22.2-5.4-15.3 0-23.5 5.3-24.4 8.1-.6 1.8.3 3.6 1.7 4.9l-.1-.1c3 3.1 10 4.4 22.2 6 7.9 1 16.2 2 22.7 4.7 8.6 3.8 13 9.9 13 18.6-.1 6.3-4.2 11.9-11.7 15.7zm74.5 0c-6.3 3.4-14.7 5.3-23.5 5.3s-17.2-1.9-23.5-5.3c-6.4-3.3-10.3-7.9-11.4-13.1 3.9-2.2 8.9-2.1 12.5 1.1 3.6 3.3 11.5 6.7 22.4 6.7 13.5 0 22.6-5 24.2-9.2l.1-.1c.7-1.8-.2-4.9-1.2-6.3-3.1-4.3-10.9-6.1-25-7.8-7.4-.9-15-1.9-21-4.3-10-4.1-12.1-11.1-12.1-16.4 0-6 4.2-11 11.8-14.6 6.3-3 14.6-4.5 23.3-4.5 8.7 0 17 1.5 23.3 4.5 6 2.6 9.8 6.4 11.3 10.7-3.5 2.9-8.6 3.4-12.4.8-3.6-2.4-11-5.4-22.2-5.4-15.3 0-23.5 5.3-24.4 8.1-.6 1.8.3 3.6 1.7 4.9l-.1-.1c3 3.1 10 4.4 22.2 6 7.9 1 16.2 2 22.7 4.7 8.6 3.8 13 9.9 13 18.6-.1 6.3-4.2 11.9-11.7 15.7zm75.5-57.6h-44.8c-.7 0-1.2.6-1.2 1.2v17.9h48.3c-.2 5.5-4.6 10.3-10.3 10.3h-38.1v21.2c0 .7.6 1.2 1.2 1.2h42.8c5.7 0 10.5 4.6 10.6 10.4h-54.4c-5.7 0-10.6-4.6-10.6-10.4v-51.7c0-5.7 4.7-10.4 10.5-10.4h55.8c0 5.5-4.3 10.3-9.8 10.3zm72.3 59.6l-21.1-25.4h-21.5v-1.2c.6-5.2 4.9-9.4 10-9.4h14.5c6.6 0 12-1.1 15.6-3.2 3.4-2 5-4.7 5-8.8 0-2.9 0-11.5-20.5-11.5h-26c-.7 0-1.2.6-1.2 1.2v51.2c0 5.6-4.9 10.3-10.6 10.3v-63.4c0-5.3 4.6-9.8 10-9.8h27.8c27 0 31.1 13.8 31.1 22.1 0 7.8-3.5 14.1-10.1 18-3.1 1.8-6.7 3-10.9 3.8l22.4 27c-4.4 3.4-11 3.3-14.5-.9zM89.9 112.6c-5.7-6.1-14.1-10-23.4-10-16.4 0-29.8 11.9-29.8 26.6 0 14.7 13.3 26.7 29.8 26.7 7.8 0 15.2-3 20.9-7.7 3.9-3.2 9.6-3 13.3.2a37.6 37.6 0 0 1-11.5 11.3c-6.7 4.3-14.6 6.5-22.7 6.5-22.2 0-40.2-16.5-40.2-37s18-37 40.2-37c15.8 0 30.1 8.6 36.5 21.8-4.1 2.7-9.7 2.4-13.1-1.4zm74 50.2l-21.1-25.4h-21.5v-1.2c.6-5.2 4.9-9.4 10-9.4h14.5c6.6 0 12-1.1 15.6-3.2 3.4-2 5-4.7 5-8.8 0-2.9 0-11.5-20.5-11.5h-26c-.7 0-1.2.6-1.2 1.2v51.2c0 5.6-4.9 10.3-10.6 10.3v-63.4c0-5.3 4.6-9.8 10-9.8h27.8c27 0 31.1 13.8 31.1 22.1 0 7.8-3.5 14.1-10.1 18-3.1 1.8-6.7 3-10.9 3.8l20.4 27c-4.4 3.4-9.1 3.3-12.5-.9zm57.6-21V166h-.5c-5.4 0-10.1-4.6-10.1-10v-14.5l-37.1-46.9c4.4-3.4 10.9-3.2 14.3 1l28.1 35.6 28.1-35.5c3.4-4.3 9.9-4.5 14.3-1.1h.1l-37.2 47.2zm94.2-9c-5.2 3.1-12.2 4.6-21 4.6h-21.3c0-5.7 4.5-10.6 10.1-10.6h11.1c6.7 0 12.1-1.1 15.7-3.2 3.4-2 5-4.7 5-8.8 0-2.9 0-11.5-20.6-11.5h-22.6c-.8 0-1.3.6-1.3 1.2v51.2c0 5.6-4.9 10.3-10.6 10.3v-63.4c0-5.3 4.6-9.8 10-9.8h24.5c27.1 0 31.2 13.8 31.2 22.1 0 7.8-3.5 14.1-10.2 17.9z"/>
  <path d="M378 103.4h-17.5V166h-.5c-5.6 0-10.1-4.9-10.1-10.6v-52.1h-17.5c-5.7 0-10.4-4.7-10.4-10.5h66.5c0 5.8-4.7 10.6-10.5 10.6zm44.5 63.2c-22.5 0-40.9-17-40.9-37.7 0-20.9 18.4-37.7 40.9-37.7 22.6 0 40.9 16.9 40.9 37.7 0 20.7-18.3 37.7-40.9 37.7zm0-64.9c-16.8 0-30.3 12.1-30.3 27.1 0 14.9 13.6 27.1 30.3 27.1 16.8 0 30.3-12.2 30.3-27.1 0-14.9-13.5-27.1-30.3-27.1z"/>
</svg>
